%TF.GenerationSoftware,KiCad,Pcbnew,(6.0.8)*%
%TF.CreationDate,2022-10-16T23:30:22+02:00*%
%TF.ProjectId,RPiWattMeterHatv3,52506957-6174-4744-9d65-746572486174,rev?*%
%TF.SameCoordinates,Original*%
%TF.FileFunction,Drillmap*%
%TF.FilePolarity,Positive*%
%FSLAX45Y45*%
G04 Gerber Fmt 4.5, Leading zero omitted, Abs format (unit mm)*
G04 Created by KiCad (PCBNEW (6.0.8)) date 2022-10-16 23:30:22*
%MOMM*%
%LPD*%
G01*
G04 APERTURE LIST*
%ADD10C,0.050000*%
%ADD11C,0.200000*%
%ADD12C,0.060000*%
%ADD13C,0.070000*%
%ADD14C,0.080000*%
%ADD15C,0.100000*%
%ADD16C,0.110000*%
G04 APERTURE END LIST*
D10*
X6707500Y-4400000D02*
X16300000Y-4400000D01*
X6507500Y-13302000D02*
X6507500Y-4600000D01*
X16500000Y-4600000D02*
X16500000Y-13302000D01*
X16500000Y-4600000D02*
G75*
G03*
X16300000Y-4400000I-200000J0D01*
G01*
X16300000Y-13502000D02*
X6707500Y-13502000D01*
X16300000Y-13502000D02*
G75*
G03*
X16500000Y-13302000I0J200000D01*
G01*
X6507500Y-13302000D02*
G75*
G03*
X6707500Y-13502000I200000J0D01*
G01*
X6707500Y-4400000D02*
G75*
G03*
X6507500Y-4600000I0J-200000D01*
G01*
D11*
D12*
X9107000Y-7197000D02*
X9167000Y-7257000D01*
X9167000Y-7197000D02*
X9107000Y-7257000D01*
X9544500Y-7622000D02*
X9604500Y-7682000D01*
X9604500Y-7622000D02*
X9544500Y-7682000D01*
X12012000Y-5677637D02*
X12072000Y-5737637D01*
X12072000Y-5677637D02*
X12012000Y-5737637D01*
X12677000Y-5928189D02*
X12737000Y-5988189D01*
X12737000Y-5928189D02*
X12677000Y-5988189D01*
X12782000Y-7622000D02*
X12842000Y-7682000D01*
X12842000Y-7622000D02*
X12782000Y-7682000D01*
X13617871Y-6182871D02*
X13677871Y-6242871D01*
X13677871Y-6182871D02*
X13617871Y-6242871D01*
X16019500Y-7622000D02*
X16079500Y-7682000D01*
X16079500Y-7622000D02*
X16019500Y-7682000D01*
D13*
X9309500Y-7727000D02*
G75*
G03*
X9309500Y-7727000I-35000J0D01*
G01*
X12547000Y-7727000D02*
G75*
G03*
X12547000Y-7727000I-35000J0D01*
G01*
X15784500Y-7727000D02*
G75*
G03*
X15784500Y-7727000I-35000J0D01*
G01*
D14*
X7580000Y-5384000D02*
X7580000Y-5464000D01*
X7540000Y-5424000D02*
X7620000Y-5424000D01*
X7580000Y-5638000D02*
X7580000Y-5718000D01*
X7540000Y-5678000D02*
X7620000Y-5678000D01*
X7580000Y-5892000D02*
X7580000Y-5972000D01*
X7540000Y-5932000D02*
X7620000Y-5932000D01*
X7580000Y-6146000D02*
X7580000Y-6226000D01*
X7540000Y-6186000D02*
X7620000Y-6186000D01*
X7580000Y-6400000D02*
X7580000Y-6480000D01*
X7540000Y-6440000D02*
X7620000Y-6440000D01*
X7580000Y-6654000D02*
X7580000Y-6734000D01*
X7540000Y-6694000D02*
X7620000Y-6694000D01*
X7580000Y-6908000D02*
X7580000Y-6988000D01*
X7540000Y-6948000D02*
X7620000Y-6948000D01*
X7580000Y-7162000D02*
X7580000Y-7242000D01*
X7540000Y-7202000D02*
X7620000Y-7202000D01*
X8342000Y-5384000D02*
X8342000Y-5464000D01*
X8302000Y-5424000D02*
X8382000Y-5424000D01*
X8342000Y-5638000D02*
X8342000Y-5718000D01*
X8302000Y-5678000D02*
X8382000Y-5678000D01*
X8342000Y-5892000D02*
X8342000Y-5972000D01*
X8302000Y-5932000D02*
X8382000Y-5932000D01*
X8342000Y-6146000D02*
X8342000Y-6226000D01*
X8302000Y-6186000D02*
X8382000Y-6186000D01*
X8342000Y-6400000D02*
X8342000Y-6480000D01*
X8302000Y-6440000D02*
X8382000Y-6440000D01*
X8342000Y-6654000D02*
X8342000Y-6734000D01*
X8302000Y-6694000D02*
X8382000Y-6694000D01*
X8342000Y-6908000D02*
X8342000Y-6988000D01*
X8302000Y-6948000D02*
X8382000Y-6948000D01*
X8342000Y-7162000D02*
X8342000Y-7242000D01*
X8302000Y-7202000D02*
X8382000Y-7202000D01*
X10830000Y-5374000D02*
X10830000Y-5454000D01*
X10790000Y-5414000D02*
X10870000Y-5414000D01*
X10830000Y-5628000D02*
X10830000Y-5708000D01*
X10790000Y-5668000D02*
X10870000Y-5668000D01*
X10830000Y-5882000D02*
X10830000Y-5962000D01*
X10790000Y-5922000D02*
X10870000Y-5922000D01*
X10830000Y-6136000D02*
X10830000Y-6216000D01*
X10790000Y-6176000D02*
X10870000Y-6176000D01*
X10830000Y-6390000D02*
X10830000Y-6470000D01*
X10790000Y-6430000D02*
X10870000Y-6430000D01*
X10830000Y-6644000D02*
X10830000Y-6724000D01*
X10790000Y-6684000D02*
X10870000Y-6684000D01*
X10830000Y-6898000D02*
X10830000Y-6978000D01*
X10790000Y-6938000D02*
X10870000Y-6938000D01*
X10830000Y-7152000D02*
X10830000Y-7232000D01*
X10790000Y-7192000D02*
X10870000Y-7192000D01*
X11592000Y-5374000D02*
X11592000Y-5454000D01*
X11552000Y-5414000D02*
X11632000Y-5414000D01*
X11592000Y-5628000D02*
X11592000Y-5708000D01*
X11552000Y-5668000D02*
X11632000Y-5668000D01*
X11592000Y-5882000D02*
X11592000Y-5962000D01*
X11552000Y-5922000D02*
X11632000Y-5922000D01*
X11592000Y-6136000D02*
X11592000Y-6216000D01*
X11552000Y-6176000D02*
X11632000Y-6176000D01*
X11592000Y-6390000D02*
X11592000Y-6470000D01*
X11552000Y-6430000D02*
X11632000Y-6430000D01*
X11592000Y-6644000D02*
X11592000Y-6724000D01*
X11552000Y-6684000D02*
X11632000Y-6684000D01*
X11592000Y-6898000D02*
X11592000Y-6978000D01*
X11552000Y-6938000D02*
X11632000Y-6938000D01*
X11592000Y-7152000D02*
X11592000Y-7232000D01*
X11552000Y-7192000D02*
X11632000Y-7192000D01*
X14055000Y-5374000D02*
X14055000Y-5454000D01*
X14015000Y-5414000D02*
X14095000Y-5414000D01*
X14055000Y-5628000D02*
X14055000Y-5708000D01*
X14015000Y-5668000D02*
X14095000Y-5668000D01*
X14055000Y-5882000D02*
X14055000Y-5962000D01*
X14015000Y-5922000D02*
X14095000Y-5922000D01*
X14055000Y-6136000D02*
X14055000Y-6216000D01*
X14015000Y-6176000D02*
X14095000Y-6176000D01*
X14055000Y-6390000D02*
X14055000Y-6470000D01*
X14015000Y-6430000D02*
X14095000Y-6430000D01*
X14055000Y-6644000D02*
X14055000Y-6724000D01*
X14015000Y-6684000D02*
X14095000Y-6684000D01*
X14055000Y-6898000D02*
X14055000Y-6978000D01*
X14015000Y-6938000D02*
X14095000Y-6938000D01*
X14055000Y-7152000D02*
X14055000Y-7232000D01*
X14015000Y-7192000D02*
X14095000Y-7192000D01*
X14817000Y-5374000D02*
X14817000Y-5454000D01*
X14777000Y-5414000D02*
X14857000Y-5414000D01*
X14817000Y-5628000D02*
X14817000Y-5708000D01*
X14777000Y-5668000D02*
X14857000Y-5668000D01*
X14817000Y-5882000D02*
X14817000Y-5962000D01*
X14777000Y-5922000D02*
X14857000Y-5922000D01*
X14817000Y-6136000D02*
X14817000Y-6216000D01*
X14777000Y-6176000D02*
X14857000Y-6176000D01*
X14817000Y-6390000D02*
X14817000Y-6470000D01*
X14777000Y-6430000D02*
X14857000Y-6430000D01*
X14817000Y-6644000D02*
X14817000Y-6724000D01*
X14777000Y-6684000D02*
X14857000Y-6684000D01*
X14817000Y-6898000D02*
X14817000Y-6978000D01*
X14777000Y-6938000D02*
X14857000Y-6938000D01*
X14817000Y-7152000D02*
X14817000Y-7232000D01*
X14777000Y-7192000D02*
X14857000Y-7192000D01*
D15*
X7022356Y-10612356D02*
X7022356Y-10541644D01*
X6951644Y-10541644D01*
X6951644Y-10612356D01*
X7022356Y-10612356D01*
X7022356Y-10962356D02*
X7022356Y-10891644D01*
X6951644Y-10891644D01*
X6951644Y-10962356D01*
X7022356Y-10962356D01*
X7022356Y-11312356D02*
X7022356Y-11241644D01*
X6951644Y-11241644D01*
X6951644Y-11312356D01*
X7022356Y-11312356D01*
X7022356Y-11662356D02*
X7022356Y-11591644D01*
X6951644Y-11591644D01*
X6951644Y-11662356D01*
X7022356Y-11662356D01*
X7022356Y-12012356D02*
X7022356Y-11941644D01*
X6951644Y-11941644D01*
X6951644Y-12012356D01*
X7022356Y-12012356D01*
X7022356Y-12362356D02*
X7022356Y-12291644D01*
X6951644Y-12291644D01*
X6951644Y-12362356D01*
X7022356Y-12362356D01*
X8032356Y-9687356D02*
X8032356Y-9616644D01*
X7961644Y-9616644D01*
X7961644Y-9687356D01*
X8032356Y-9687356D01*
X8032356Y-12687356D02*
X8032356Y-12616644D01*
X7961644Y-12616644D01*
X7961644Y-12687356D01*
X8032356Y-12687356D01*
X8532356Y-9687356D02*
X8532356Y-9616644D01*
X8461644Y-9616644D01*
X8461644Y-9687356D01*
X8532356Y-9687356D01*
X8532356Y-12687356D02*
X8532356Y-12616644D01*
X8461644Y-12616644D01*
X8461644Y-12687356D01*
X8532356Y-12687356D01*
X9032356Y-9687356D02*
X9032356Y-9616644D01*
X8961644Y-9616644D01*
X8961644Y-9687356D01*
X9032356Y-9687356D01*
X9032356Y-12687356D02*
X9032356Y-12616644D01*
X8961644Y-12616644D01*
X8961644Y-12687356D01*
X9032356Y-12687356D01*
X9532356Y-9687356D02*
X9532356Y-9616644D01*
X9461644Y-9616644D01*
X9461644Y-9687356D01*
X9532356Y-9687356D01*
X9532356Y-12687356D02*
X9532356Y-12616644D01*
X9461644Y-12616644D01*
X9461644Y-12687356D01*
X9532356Y-12687356D01*
X10872356Y-4658356D02*
X10872356Y-4587644D01*
X10801644Y-4587644D01*
X10801644Y-4658356D01*
X10872356Y-4658356D01*
X10872356Y-4912356D02*
X10872356Y-4841644D01*
X10801644Y-4841644D01*
X10801644Y-4912356D01*
X10872356Y-4912356D01*
X11126356Y-4658356D02*
X11126356Y-4587644D01*
X11055644Y-4587644D01*
X11055644Y-4658356D01*
X11126356Y-4658356D01*
X11126356Y-4912356D02*
X11126356Y-4841644D01*
X11055644Y-4841644D01*
X11055644Y-4912356D01*
X11126356Y-4912356D01*
X11232356Y-9687356D02*
X11232356Y-9616644D01*
X11161644Y-9616644D01*
X11161644Y-9687356D01*
X11232356Y-9687356D01*
X11232356Y-12687356D02*
X11232356Y-12616644D01*
X11161644Y-12616644D01*
X11161644Y-12687356D01*
X11232356Y-12687356D01*
X11380356Y-4658356D02*
X11380356Y-4587644D01*
X11309644Y-4587644D01*
X11309644Y-4658356D01*
X11380356Y-4658356D01*
X11380356Y-4912356D02*
X11380356Y-4841644D01*
X11309644Y-4841644D01*
X11309644Y-4912356D01*
X11380356Y-4912356D01*
X11634356Y-4658356D02*
X11634356Y-4587644D01*
X11563644Y-4587644D01*
X11563644Y-4658356D01*
X11634356Y-4658356D01*
X11634356Y-4912356D02*
X11634356Y-4841644D01*
X11563644Y-4841644D01*
X11563644Y-4912356D01*
X11634356Y-4912356D01*
X11732356Y-9687356D02*
X11732356Y-9616644D01*
X11661644Y-9616644D01*
X11661644Y-9687356D01*
X11732356Y-9687356D01*
X11732356Y-12687356D02*
X11732356Y-12616644D01*
X11661644Y-12616644D01*
X11661644Y-12687356D01*
X11732356Y-12687356D01*
X11888356Y-4658356D02*
X11888356Y-4587644D01*
X11817644Y-4587644D01*
X11817644Y-4658356D01*
X11888356Y-4658356D01*
X11888356Y-4912356D02*
X11888356Y-4841644D01*
X11817644Y-4841644D01*
X11817644Y-4912356D01*
X11888356Y-4912356D01*
X12142356Y-4658356D02*
X12142356Y-4587644D01*
X12071644Y-4587644D01*
X12071644Y-4658356D01*
X12142356Y-4658356D01*
X12142356Y-4912356D02*
X12142356Y-4841644D01*
X12071644Y-4841644D01*
X12071644Y-4912356D01*
X12142356Y-4912356D01*
X12232356Y-9687356D02*
X12232356Y-9616644D01*
X12161644Y-9616644D01*
X12161644Y-9687356D01*
X12232356Y-9687356D01*
X12232356Y-12687356D02*
X12232356Y-12616644D01*
X12161644Y-12616644D01*
X12161644Y-12687356D01*
X12232356Y-12687356D01*
X12396356Y-4658356D02*
X12396356Y-4587644D01*
X12325644Y-4587644D01*
X12325644Y-4658356D01*
X12396356Y-4658356D01*
X12396356Y-4912356D02*
X12396356Y-4841644D01*
X12325644Y-4841644D01*
X12325644Y-4912356D01*
X12396356Y-4912356D01*
X12650356Y-4658356D02*
X12650356Y-4587644D01*
X12579644Y-4587644D01*
X12579644Y-4658356D01*
X12650356Y-4658356D01*
X12650356Y-4912356D02*
X12650356Y-4841644D01*
X12579644Y-4841644D01*
X12579644Y-4912356D01*
X12650356Y-4912356D01*
X12732356Y-9687356D02*
X12732356Y-9616644D01*
X12661644Y-9616644D01*
X12661644Y-9687356D01*
X12732356Y-9687356D01*
X12732356Y-12687356D02*
X12732356Y-12616644D01*
X12661644Y-12616644D01*
X12661644Y-12687356D01*
X12732356Y-12687356D01*
X12904356Y-4658356D02*
X12904356Y-4587644D01*
X12833644Y-4587644D01*
X12833644Y-4658356D01*
X12904356Y-4658356D01*
X12904356Y-4912356D02*
X12904356Y-4841644D01*
X12833644Y-4841644D01*
X12833644Y-4912356D01*
X12904356Y-4912356D01*
X13158356Y-4658356D02*
X13158356Y-4587644D01*
X13087644Y-4587644D01*
X13087644Y-4658356D01*
X13158356Y-4658356D01*
X13158356Y-4912356D02*
X13158356Y-4841644D01*
X13087644Y-4841644D01*
X13087644Y-4912356D01*
X13158356Y-4912356D01*
X13412356Y-4658356D02*
X13412356Y-4587644D01*
X13341644Y-4587644D01*
X13341644Y-4658356D01*
X13412356Y-4658356D01*
X13412356Y-4912356D02*
X13412356Y-4841644D01*
X13341644Y-4841644D01*
X13341644Y-4912356D01*
X13412356Y-4912356D01*
X13666356Y-4658356D02*
X13666356Y-4587644D01*
X13595644Y-4587644D01*
X13595644Y-4658356D01*
X13666356Y-4658356D01*
X13666356Y-4912356D02*
X13666356Y-4841644D01*
X13595644Y-4841644D01*
X13595644Y-4912356D01*
X13666356Y-4912356D01*
X13842356Y-9687356D02*
X13842356Y-9616644D01*
X13771644Y-9616644D01*
X13771644Y-9687356D01*
X13842356Y-9687356D01*
X13842356Y-12687356D02*
X13842356Y-12616644D01*
X13771644Y-12616644D01*
X13771644Y-12687356D01*
X13842356Y-12687356D01*
X13920356Y-4658356D02*
X13920356Y-4587644D01*
X13849644Y-4587644D01*
X13849644Y-4658356D01*
X13920356Y-4658356D01*
X13920356Y-4912356D02*
X13920356Y-4841644D01*
X13849644Y-4841644D01*
X13849644Y-4912356D01*
X13920356Y-4912356D01*
X14174356Y-4658356D02*
X14174356Y-4587644D01*
X14103644Y-4587644D01*
X14103644Y-4658356D01*
X14174356Y-4658356D01*
X14174356Y-4912356D02*
X14174356Y-4841644D01*
X14103644Y-4841644D01*
X14103644Y-4912356D01*
X14174356Y-4912356D01*
X14342356Y-9687356D02*
X14342356Y-9616644D01*
X14271644Y-9616644D01*
X14271644Y-9687356D01*
X14342356Y-9687356D01*
X14342356Y-12687356D02*
X14342356Y-12616644D01*
X14271644Y-12616644D01*
X14271644Y-12687356D01*
X14342356Y-12687356D01*
X14428356Y-4658356D02*
X14428356Y-4587644D01*
X14357644Y-4587644D01*
X14357644Y-4658356D01*
X14428356Y-4658356D01*
X14428356Y-4912356D02*
X14428356Y-4841644D01*
X14357644Y-4841644D01*
X14357644Y-4912356D01*
X14428356Y-4912356D01*
X14682356Y-4658356D02*
X14682356Y-4587644D01*
X14611644Y-4587644D01*
X14611644Y-4658356D01*
X14682356Y-4658356D01*
X14682356Y-4912356D02*
X14682356Y-4841644D01*
X14611644Y-4841644D01*
X14611644Y-4912356D01*
X14682356Y-4912356D01*
X14842356Y-9687356D02*
X14842356Y-9616644D01*
X14771644Y-9616644D01*
X14771644Y-9687356D01*
X14842356Y-9687356D01*
X14842356Y-12687356D02*
X14842356Y-12616644D01*
X14771644Y-12616644D01*
X14771644Y-12687356D01*
X14842356Y-12687356D01*
X14936356Y-4658356D02*
X14936356Y-4587644D01*
X14865644Y-4587644D01*
X14865644Y-4658356D01*
X14936356Y-4658356D01*
X14936356Y-4912356D02*
X14936356Y-4841644D01*
X14865644Y-4841644D01*
X14865644Y-4912356D01*
X14936356Y-4912356D01*
X15190356Y-4658356D02*
X15190356Y-4587644D01*
X15119644Y-4587644D01*
X15119644Y-4658356D01*
X15190356Y-4658356D01*
X15190356Y-4912356D02*
X15190356Y-4841644D01*
X15119644Y-4841644D01*
X15119644Y-4912356D01*
X15190356Y-4912356D01*
X15342356Y-9687356D02*
X15342356Y-9616644D01*
X15271644Y-9616644D01*
X15271644Y-9687356D01*
X15342356Y-9687356D01*
X15342356Y-12687356D02*
X15342356Y-12616644D01*
X15271644Y-12616644D01*
X15271644Y-12687356D01*
X15342356Y-12687356D01*
X15444356Y-4658356D02*
X15444356Y-4587644D01*
X15373644Y-4587644D01*
X15373644Y-4658356D01*
X15444356Y-4658356D01*
X15444356Y-4912356D02*
X15444356Y-4841644D01*
X15373644Y-4841644D01*
X15373644Y-4912356D01*
X15444356Y-4912356D01*
X15698356Y-4658356D02*
X15698356Y-4587644D01*
X15627644Y-4587644D01*
X15627644Y-4658356D01*
X15698356Y-4658356D01*
X15698356Y-4912356D02*
X15698356Y-4841644D01*
X15627644Y-4841644D01*
X15627644Y-4912356D01*
X15698356Y-4912356D01*
D16*
X6782000Y-8092088D02*
X6837000Y-8037088D01*
X6782000Y-7982088D01*
X6727000Y-8037088D01*
X6782000Y-8092088D01*
X7032000Y-8092088D02*
X7087000Y-8037088D01*
X7032000Y-7982088D01*
X6977000Y-8037088D01*
X7032000Y-8092088D01*
X7282000Y-8092088D02*
X7337000Y-8037088D01*
X7282000Y-7982088D01*
X7227000Y-8037088D01*
X7282000Y-8092088D01*
X7532000Y-8092088D02*
X7587000Y-8037088D01*
X7532000Y-7982088D01*
X7477000Y-8037088D01*
X7532000Y-8092088D01*
X7782000Y-8092088D02*
X7837000Y-8037088D01*
X7782000Y-7982088D01*
X7727000Y-8037088D01*
X7782000Y-8092088D01*
X8032000Y-8092088D02*
X8087000Y-8037088D01*
X8032000Y-7982088D01*
X7977000Y-8037088D01*
X8032000Y-8092088D01*
X8282000Y-8092088D02*
X8337000Y-8037088D01*
X8282000Y-7982088D01*
X8227000Y-8037088D01*
X8282000Y-8092088D01*
X8532000Y-8092088D02*
X8587000Y-8037088D01*
X8532000Y-7982088D01*
X8477000Y-8037088D01*
X8532000Y-8092088D01*
X8782000Y-8092088D02*
X8837000Y-8037088D01*
X8782000Y-7982088D01*
X8727000Y-8037088D01*
X8782000Y-8092088D01*
X9032000Y-8092088D02*
X9087000Y-8037088D01*
X9032000Y-7982088D01*
X8977000Y-8037088D01*
X9032000Y-8092088D01*
X9282000Y-8092088D02*
X9337000Y-8037088D01*
X9282000Y-7982088D01*
X9227000Y-8037088D01*
X9282000Y-8092088D01*
X9532000Y-8092088D02*
X9587000Y-8037088D01*
X9532000Y-7982088D01*
X9477000Y-8037088D01*
X9532000Y-8092088D01*
X10020000Y-8092000D02*
X10075000Y-8037000D01*
X10020000Y-7982000D01*
X9965000Y-8037000D01*
X10020000Y-8092000D01*
X10270000Y-8092000D02*
X10325000Y-8037000D01*
X10270000Y-7982000D01*
X10215000Y-8037000D01*
X10270000Y-8092000D01*
X10520000Y-8092000D02*
X10575000Y-8037000D01*
X10520000Y-7982000D01*
X10465000Y-8037000D01*
X10520000Y-8092000D01*
X10770000Y-8092000D02*
X10825000Y-8037000D01*
X10770000Y-7982000D01*
X10715000Y-8037000D01*
X10770000Y-8092000D01*
X11020000Y-8092000D02*
X11075000Y-8037000D01*
X11020000Y-7982000D01*
X10965000Y-8037000D01*
X11020000Y-8092000D01*
X11270000Y-8092000D02*
X11325000Y-8037000D01*
X11270000Y-7982000D01*
X11215000Y-8037000D01*
X11270000Y-8092000D01*
X11520000Y-8092000D02*
X11575000Y-8037000D01*
X11520000Y-7982000D01*
X11465000Y-8037000D01*
X11520000Y-8092000D01*
X11770000Y-8092000D02*
X11825000Y-8037000D01*
X11770000Y-7982000D01*
X11715000Y-8037000D01*
X11770000Y-8092000D01*
X12020000Y-8092000D02*
X12075000Y-8037000D01*
X12020000Y-7982000D01*
X11965000Y-8037000D01*
X12020000Y-8092000D01*
X12270000Y-8092000D02*
X12325000Y-8037000D01*
X12270000Y-7982000D01*
X12215000Y-8037000D01*
X12270000Y-8092000D01*
X12520000Y-8092000D02*
X12575000Y-8037000D01*
X12520000Y-7982000D01*
X12465000Y-8037000D01*
X12520000Y-8092000D01*
X12770000Y-8092000D02*
X12825000Y-8037000D01*
X12770000Y-7982000D01*
X12715000Y-8037000D01*
X12770000Y-8092000D01*
X13257000Y-8092000D02*
X13312000Y-8037000D01*
X13257000Y-7982000D01*
X13202000Y-8037000D01*
X13257000Y-8092000D01*
X13507000Y-8092000D02*
X13562000Y-8037000D01*
X13507000Y-7982000D01*
X13452000Y-8037000D01*
X13507000Y-8092000D01*
X13757000Y-8092000D02*
X13812000Y-8037000D01*
X13757000Y-7982000D01*
X13702000Y-8037000D01*
X13757000Y-8092000D01*
X14007000Y-8092000D02*
X14062000Y-8037000D01*
X14007000Y-7982000D01*
X13952000Y-8037000D01*
X14007000Y-8092000D01*
X14257000Y-8092000D02*
X14312000Y-8037000D01*
X14257000Y-7982000D01*
X14202000Y-8037000D01*
X14257000Y-8092000D01*
X14507000Y-8092000D02*
X14562000Y-8037000D01*
X14507000Y-7982000D01*
X14452000Y-8037000D01*
X14507000Y-8092000D01*
X14757000Y-8092000D02*
X14812000Y-8037000D01*
X14757000Y-7982000D01*
X14702000Y-8037000D01*
X14757000Y-8092000D01*
X15007000Y-8092000D02*
X15062000Y-8037000D01*
X15007000Y-7982000D01*
X14952000Y-8037000D01*
X15007000Y-8092000D01*
X15257000Y-8092000D02*
X15312000Y-8037000D01*
X15257000Y-7982000D01*
X15202000Y-8037000D01*
X15257000Y-8092000D01*
X15507000Y-8092000D02*
X15562000Y-8037000D01*
X15507000Y-7982000D01*
X15452000Y-8037000D01*
X15507000Y-8092000D01*
X15757000Y-8092000D02*
X15812000Y-8037000D01*
X15757000Y-7982000D01*
X15702000Y-8037000D01*
X15757000Y-8092000D01*
X16007000Y-8092000D02*
X16062000Y-8037000D01*
X16007000Y-7982000D01*
X15952000Y-8037000D01*
X16007000Y-8092000D01*
D11*
X6762619Y-13814976D02*
X6762619Y-13614976D01*
X6810238Y-13614976D01*
X6838809Y-13624500D01*
X6857857Y-13643548D01*
X6867381Y-13662595D01*
X6876905Y-13700690D01*
X6876905Y-13729262D01*
X6867381Y-13767357D01*
X6857857Y-13786405D01*
X6838809Y-13805452D01*
X6810238Y-13814976D01*
X6762619Y-13814976D01*
X6962619Y-13814976D02*
X6962619Y-13681643D01*
X6962619Y-13719738D02*
X6972143Y-13700690D01*
X6981667Y-13691167D01*
X7000714Y-13681643D01*
X7019762Y-13681643D01*
X7086428Y-13814976D02*
X7086428Y-13681643D01*
X7086428Y-13614976D02*
X7076905Y-13624500D01*
X7086428Y-13634024D01*
X7095952Y-13624500D01*
X7086428Y-13614976D01*
X7086428Y-13634024D01*
X7210238Y-13814976D02*
X7191190Y-13805452D01*
X7181667Y-13786405D01*
X7181667Y-13614976D01*
X7315000Y-13814976D02*
X7295952Y-13805452D01*
X7286428Y-13786405D01*
X7286428Y-13614976D01*
X7543571Y-13814976D02*
X7543571Y-13614976D01*
X7610238Y-13757833D01*
X7676905Y-13614976D01*
X7676905Y-13814976D01*
X7857857Y-13814976D02*
X7857857Y-13710214D01*
X7848333Y-13691167D01*
X7829286Y-13681643D01*
X7791190Y-13681643D01*
X7772143Y-13691167D01*
X7857857Y-13805452D02*
X7838809Y-13814976D01*
X7791190Y-13814976D01*
X7772143Y-13805452D01*
X7762619Y-13786405D01*
X7762619Y-13767357D01*
X7772143Y-13748309D01*
X7791190Y-13738786D01*
X7838809Y-13738786D01*
X7857857Y-13729262D01*
X7953095Y-13681643D02*
X7953095Y-13881643D01*
X7953095Y-13691167D02*
X7972143Y-13681643D01*
X8010238Y-13681643D01*
X8029286Y-13691167D01*
X8038809Y-13700690D01*
X8048333Y-13719738D01*
X8048333Y-13776881D01*
X8038809Y-13795928D01*
X8029286Y-13805452D01*
X8010238Y-13814976D01*
X7972143Y-13814976D01*
X7953095Y-13805452D01*
X8134048Y-13795928D02*
X8143571Y-13805452D01*
X8134048Y-13814976D01*
X8124524Y-13805452D01*
X8134048Y-13795928D01*
X8134048Y-13814976D01*
X8134048Y-13691167D02*
X8143571Y-13700690D01*
X8134048Y-13710214D01*
X8124524Y-13700690D01*
X8134048Y-13691167D01*
X8134048Y-13710214D01*
D12*
X6445000Y-14114500D02*
X6505000Y-14174500D01*
X6505000Y-14114500D02*
X6445000Y-14174500D01*
D11*
X6800714Y-14034976D02*
X6819762Y-14034976D01*
X6838809Y-14044500D01*
X6848333Y-14054024D01*
X6857857Y-14073071D01*
X6867381Y-14111167D01*
X6867381Y-14158786D01*
X6857857Y-14196881D01*
X6848333Y-14215928D01*
X6838809Y-14225452D01*
X6819762Y-14234976D01*
X6800714Y-14234976D01*
X6781667Y-14225452D01*
X6772143Y-14215928D01*
X6762619Y-14196881D01*
X6753095Y-14158786D01*
X6753095Y-14111167D01*
X6762619Y-14073071D01*
X6772143Y-14054024D01*
X6781667Y-14044500D01*
X6800714Y-14034976D01*
X6953095Y-14215928D02*
X6962619Y-14225452D01*
X6953095Y-14234976D01*
X6943571Y-14225452D01*
X6953095Y-14215928D01*
X6953095Y-14234976D01*
X7134048Y-14034976D02*
X7095952Y-14034976D01*
X7076905Y-14044500D01*
X7067381Y-14054024D01*
X7048333Y-14082595D01*
X7038809Y-14120690D01*
X7038809Y-14196881D01*
X7048333Y-14215928D01*
X7057857Y-14225452D01*
X7076905Y-14234976D01*
X7115000Y-14234976D01*
X7134048Y-14225452D01*
X7143571Y-14215928D01*
X7153095Y-14196881D01*
X7153095Y-14149262D01*
X7143571Y-14130214D01*
X7134048Y-14120690D01*
X7115000Y-14111167D01*
X7076905Y-14111167D01*
X7057857Y-14120690D01*
X7048333Y-14130214D01*
X7038809Y-14149262D01*
X7276905Y-14034976D02*
X7295952Y-14034976D01*
X7315000Y-14044500D01*
X7324524Y-14054024D01*
X7334048Y-14073071D01*
X7343571Y-14111167D01*
X7343571Y-14158786D01*
X7334048Y-14196881D01*
X7324524Y-14215928D01*
X7315000Y-14225452D01*
X7295952Y-14234976D01*
X7276905Y-14234976D01*
X7257857Y-14225452D01*
X7248333Y-14215928D01*
X7238809Y-14196881D01*
X7229286Y-14158786D01*
X7229286Y-14111167D01*
X7238809Y-14073071D01*
X7248333Y-14054024D01*
X7257857Y-14044500D01*
X7276905Y-14034976D01*
X7467381Y-14034976D02*
X7486428Y-14034976D01*
X7505476Y-14044500D01*
X7515000Y-14054024D01*
X7524524Y-14073071D01*
X7534048Y-14111167D01*
X7534048Y-14158786D01*
X7524524Y-14196881D01*
X7515000Y-14215928D01*
X7505476Y-14225452D01*
X7486428Y-14234976D01*
X7467381Y-14234976D01*
X7448333Y-14225452D01*
X7438809Y-14215928D01*
X7429286Y-14196881D01*
X7419762Y-14158786D01*
X7419762Y-14111167D01*
X7429286Y-14073071D01*
X7438809Y-14054024D01*
X7448333Y-14044500D01*
X7467381Y-14034976D01*
X7619762Y-14234976D02*
X7619762Y-14101643D01*
X7619762Y-14120690D02*
X7629286Y-14111167D01*
X7648333Y-14101643D01*
X7676905Y-14101643D01*
X7695952Y-14111167D01*
X7705476Y-14130214D01*
X7705476Y-14234976D01*
X7705476Y-14130214D02*
X7715000Y-14111167D01*
X7734048Y-14101643D01*
X7762619Y-14101643D01*
X7781667Y-14111167D01*
X7791190Y-14130214D01*
X7791190Y-14234976D01*
X7886428Y-14234976D02*
X7886428Y-14101643D01*
X7886428Y-14120690D02*
X7895952Y-14111167D01*
X7915000Y-14101643D01*
X7943571Y-14101643D01*
X7962619Y-14111167D01*
X7972143Y-14130214D01*
X7972143Y-14234976D01*
X7972143Y-14130214D02*
X7981667Y-14111167D01*
X8000714Y-14101643D01*
X8029286Y-14101643D01*
X8048333Y-14111167D01*
X8057857Y-14130214D01*
X8057857Y-14234976D01*
X8448333Y-14025452D02*
X8276905Y-14282595D01*
X8705476Y-14034976D02*
X8724524Y-14034976D01*
X8743571Y-14044500D01*
X8753095Y-14054024D01*
X8762619Y-14073071D01*
X8772143Y-14111167D01*
X8772143Y-14158786D01*
X8762619Y-14196881D01*
X8753095Y-14215928D01*
X8743571Y-14225452D01*
X8724524Y-14234976D01*
X8705476Y-14234976D01*
X8686429Y-14225452D01*
X8676905Y-14215928D01*
X8667381Y-14196881D01*
X8657857Y-14158786D01*
X8657857Y-14111167D01*
X8667381Y-14073071D01*
X8676905Y-14054024D01*
X8686429Y-14044500D01*
X8705476Y-14034976D01*
X8857857Y-14215928D02*
X8867381Y-14225452D01*
X8857857Y-14234976D01*
X8848333Y-14225452D01*
X8857857Y-14215928D01*
X8857857Y-14234976D01*
X8991190Y-14034976D02*
X9010238Y-14034976D01*
X9029286Y-14044500D01*
X9038810Y-14054024D01*
X9048333Y-14073071D01*
X9057857Y-14111167D01*
X9057857Y-14158786D01*
X9048333Y-14196881D01*
X9038810Y-14215928D01*
X9029286Y-14225452D01*
X9010238Y-14234976D01*
X8991190Y-14234976D01*
X8972143Y-14225452D01*
X8962619Y-14215928D01*
X8953095Y-14196881D01*
X8943571Y-14158786D01*
X8943571Y-14111167D01*
X8953095Y-14073071D01*
X8962619Y-14054024D01*
X8972143Y-14044500D01*
X8991190Y-14034976D01*
X9134048Y-14054024D02*
X9143571Y-14044500D01*
X9162619Y-14034976D01*
X9210238Y-14034976D01*
X9229286Y-14044500D01*
X9238810Y-14054024D01*
X9248333Y-14073071D01*
X9248333Y-14092119D01*
X9238810Y-14120690D01*
X9124524Y-14234976D01*
X9248333Y-14234976D01*
X9315000Y-14034976D02*
X9438810Y-14034976D01*
X9372143Y-14111167D01*
X9400714Y-14111167D01*
X9419762Y-14120690D01*
X9429286Y-14130214D01*
X9438810Y-14149262D01*
X9438810Y-14196881D01*
X9429286Y-14215928D01*
X9419762Y-14225452D01*
X9400714Y-14234976D01*
X9343571Y-14234976D01*
X9324524Y-14225452D01*
X9315000Y-14215928D01*
X9610238Y-14034976D02*
X9572143Y-14034976D01*
X9553095Y-14044500D01*
X9543571Y-14054024D01*
X9524524Y-14082595D01*
X9515000Y-14120690D01*
X9515000Y-14196881D01*
X9524524Y-14215928D01*
X9534048Y-14225452D01*
X9553095Y-14234976D01*
X9591190Y-14234976D01*
X9610238Y-14225452D01*
X9619762Y-14215928D01*
X9629286Y-14196881D01*
X9629286Y-14149262D01*
X9619762Y-14130214D01*
X9610238Y-14120690D01*
X9591190Y-14111167D01*
X9553095Y-14111167D01*
X9534048Y-14120690D01*
X9524524Y-14130214D01*
X9515000Y-14149262D01*
X9705476Y-14034976D02*
X9705476Y-14073071D01*
X9781667Y-14034976D02*
X9781667Y-14073071D01*
X10076905Y-14311167D02*
X10067381Y-14301643D01*
X10048333Y-14273071D01*
X10038810Y-14254024D01*
X10029286Y-14225452D01*
X10019762Y-14177833D01*
X10019762Y-14139738D01*
X10029286Y-14092119D01*
X10038810Y-14063548D01*
X10048333Y-14044500D01*
X10067381Y-14015928D01*
X10076905Y-14006405D01*
X10134048Y-14034976D02*
X10267381Y-14034976D01*
X10181667Y-14234976D01*
X10495952Y-14234976D02*
X10495952Y-14034976D01*
X10581667Y-14234976D02*
X10581667Y-14130214D01*
X10572143Y-14111167D01*
X10553095Y-14101643D01*
X10524524Y-14101643D01*
X10505476Y-14111167D01*
X10495952Y-14120690D01*
X10705476Y-14234976D02*
X10686429Y-14225452D01*
X10676905Y-14215928D01*
X10667381Y-14196881D01*
X10667381Y-14139738D01*
X10676905Y-14120690D01*
X10686429Y-14111167D01*
X10705476Y-14101643D01*
X10734048Y-14101643D01*
X10753095Y-14111167D01*
X10762619Y-14120690D01*
X10772143Y-14139738D01*
X10772143Y-14196881D01*
X10762619Y-14215928D01*
X10753095Y-14225452D01*
X10734048Y-14234976D01*
X10705476Y-14234976D01*
X10886429Y-14234976D02*
X10867381Y-14225452D01*
X10857857Y-14206405D01*
X10857857Y-14034976D01*
X11038810Y-14225452D02*
X11019762Y-14234976D01*
X10981667Y-14234976D01*
X10962619Y-14225452D01*
X10953095Y-14206405D01*
X10953095Y-14130214D01*
X10962619Y-14111167D01*
X10981667Y-14101643D01*
X11019762Y-14101643D01*
X11038810Y-14111167D01*
X11048333Y-14130214D01*
X11048333Y-14149262D01*
X10953095Y-14168309D01*
X11124524Y-14225452D02*
X11143571Y-14234976D01*
X11181667Y-14234976D01*
X11200714Y-14225452D01*
X11210238Y-14206405D01*
X11210238Y-14196881D01*
X11200714Y-14177833D01*
X11181667Y-14168309D01*
X11153095Y-14168309D01*
X11134048Y-14158786D01*
X11124524Y-14139738D01*
X11124524Y-14130214D01*
X11134048Y-14111167D01*
X11153095Y-14101643D01*
X11181667Y-14101643D01*
X11200714Y-14111167D01*
X11276905Y-14311167D02*
X11286428Y-14301643D01*
X11305476Y-14273071D01*
X11315000Y-14254024D01*
X11324524Y-14225452D01*
X11334048Y-14177833D01*
X11334048Y-14139738D01*
X11324524Y-14092119D01*
X11315000Y-14063548D01*
X11305476Y-14044500D01*
X11286428Y-14015928D01*
X11276905Y-14006405D01*
D13*
X6505000Y-14408500D02*
G75*
G03*
X6505000Y-14408500I-35000J0D01*
G01*
D11*
X6800714Y-14298976D02*
X6819762Y-14298976D01*
X6838809Y-14308500D01*
X6848333Y-14318024D01*
X6857857Y-14337071D01*
X6867381Y-14375167D01*
X6867381Y-14422786D01*
X6857857Y-14460881D01*
X6848333Y-14479928D01*
X6838809Y-14489452D01*
X6819762Y-14498976D01*
X6800714Y-14498976D01*
X6781667Y-14489452D01*
X6772143Y-14479928D01*
X6762619Y-14460881D01*
X6753095Y-14422786D01*
X6753095Y-14375167D01*
X6762619Y-14337071D01*
X6772143Y-14318024D01*
X6781667Y-14308500D01*
X6800714Y-14298976D01*
X6953095Y-14479928D02*
X6962619Y-14489452D01*
X6953095Y-14498976D01*
X6943571Y-14489452D01*
X6953095Y-14479928D01*
X6953095Y-14498976D01*
X7029286Y-14298976D02*
X7162619Y-14298976D01*
X7076905Y-14498976D01*
X7276905Y-14298976D02*
X7295952Y-14298976D01*
X7315000Y-14308500D01*
X7324524Y-14318024D01*
X7334048Y-14337071D01*
X7343571Y-14375167D01*
X7343571Y-14422786D01*
X7334048Y-14460881D01*
X7324524Y-14479928D01*
X7315000Y-14489452D01*
X7295952Y-14498976D01*
X7276905Y-14498976D01*
X7257857Y-14489452D01*
X7248333Y-14479928D01*
X7238809Y-14460881D01*
X7229286Y-14422786D01*
X7229286Y-14375167D01*
X7238809Y-14337071D01*
X7248333Y-14318024D01*
X7257857Y-14308500D01*
X7276905Y-14298976D01*
X7467381Y-14298976D02*
X7486428Y-14298976D01*
X7505476Y-14308500D01*
X7515000Y-14318024D01*
X7524524Y-14337071D01*
X7534048Y-14375167D01*
X7534048Y-14422786D01*
X7524524Y-14460881D01*
X7515000Y-14479928D01*
X7505476Y-14489452D01*
X7486428Y-14498976D01*
X7467381Y-14498976D01*
X7448333Y-14489452D01*
X7438809Y-14479928D01*
X7429286Y-14460881D01*
X7419762Y-14422786D01*
X7419762Y-14375167D01*
X7429286Y-14337071D01*
X7438809Y-14318024D01*
X7448333Y-14308500D01*
X7467381Y-14298976D01*
X7619762Y-14498976D02*
X7619762Y-14365643D01*
X7619762Y-14384690D02*
X7629286Y-14375167D01*
X7648333Y-14365643D01*
X7676905Y-14365643D01*
X7695952Y-14375167D01*
X7705476Y-14394214D01*
X7705476Y-14498976D01*
X7705476Y-14394214D02*
X7715000Y-14375167D01*
X7734048Y-14365643D01*
X7762619Y-14365643D01*
X7781667Y-14375167D01*
X7791190Y-14394214D01*
X7791190Y-14498976D01*
X7886428Y-14498976D02*
X7886428Y-14365643D01*
X7886428Y-14384690D02*
X7895952Y-14375167D01*
X7915000Y-14365643D01*
X7943571Y-14365643D01*
X7962619Y-14375167D01*
X7972143Y-14394214D01*
X7972143Y-14498976D01*
X7972143Y-14394214D02*
X7981667Y-14375167D01*
X8000714Y-14365643D01*
X8029286Y-14365643D01*
X8048333Y-14375167D01*
X8057857Y-14394214D01*
X8057857Y-14498976D01*
X8448333Y-14289452D02*
X8276905Y-14546595D01*
X8705476Y-14298976D02*
X8724524Y-14298976D01*
X8743571Y-14308500D01*
X8753095Y-14318024D01*
X8762619Y-14337071D01*
X8772143Y-14375167D01*
X8772143Y-14422786D01*
X8762619Y-14460881D01*
X8753095Y-14479928D01*
X8743571Y-14489452D01*
X8724524Y-14498976D01*
X8705476Y-14498976D01*
X8686429Y-14489452D01*
X8676905Y-14479928D01*
X8667381Y-14460881D01*
X8657857Y-14422786D01*
X8657857Y-14375167D01*
X8667381Y-14337071D01*
X8676905Y-14318024D01*
X8686429Y-14308500D01*
X8705476Y-14298976D01*
X8857857Y-14479928D02*
X8867381Y-14489452D01*
X8857857Y-14498976D01*
X8848333Y-14489452D01*
X8857857Y-14479928D01*
X8857857Y-14498976D01*
X8991190Y-14298976D02*
X9010238Y-14298976D01*
X9029286Y-14308500D01*
X9038810Y-14318024D01*
X9048333Y-14337071D01*
X9057857Y-14375167D01*
X9057857Y-14422786D01*
X9048333Y-14460881D01*
X9038810Y-14479928D01*
X9029286Y-14489452D01*
X9010238Y-14498976D01*
X8991190Y-14498976D01*
X8972143Y-14489452D01*
X8962619Y-14479928D01*
X8953095Y-14460881D01*
X8943571Y-14422786D01*
X8943571Y-14375167D01*
X8953095Y-14337071D01*
X8962619Y-14318024D01*
X8972143Y-14308500D01*
X8991190Y-14298976D01*
X9134048Y-14318024D02*
X9143571Y-14308500D01*
X9162619Y-14298976D01*
X9210238Y-14298976D01*
X9229286Y-14308500D01*
X9238810Y-14318024D01*
X9248333Y-14337071D01*
X9248333Y-14356119D01*
X9238810Y-14384690D01*
X9124524Y-14498976D01*
X9248333Y-14498976D01*
X9315000Y-14298976D02*
X9448333Y-14298976D01*
X9362619Y-14498976D01*
X9610238Y-14298976D02*
X9572143Y-14298976D01*
X9553095Y-14308500D01*
X9543571Y-14318024D01*
X9524524Y-14346595D01*
X9515000Y-14384690D01*
X9515000Y-14460881D01*
X9524524Y-14479928D01*
X9534048Y-14489452D01*
X9553095Y-14498976D01*
X9591190Y-14498976D01*
X9610238Y-14489452D01*
X9619762Y-14479928D01*
X9629286Y-14460881D01*
X9629286Y-14413262D01*
X9619762Y-14394214D01*
X9610238Y-14384690D01*
X9591190Y-14375167D01*
X9553095Y-14375167D01*
X9534048Y-14384690D01*
X9524524Y-14394214D01*
X9515000Y-14413262D01*
X9705476Y-14298976D02*
X9705476Y-14337071D01*
X9781667Y-14298976D02*
X9781667Y-14337071D01*
X10076905Y-14575167D02*
X10067381Y-14565643D01*
X10048333Y-14537071D01*
X10038810Y-14518024D01*
X10029286Y-14489452D01*
X10019762Y-14441833D01*
X10019762Y-14403738D01*
X10029286Y-14356119D01*
X10038810Y-14327548D01*
X10048333Y-14308500D01*
X10067381Y-14279928D01*
X10076905Y-14270405D01*
X10134048Y-14298976D02*
X10257857Y-14298976D01*
X10191190Y-14375167D01*
X10219762Y-14375167D01*
X10238810Y-14384690D01*
X10248333Y-14394214D01*
X10257857Y-14413262D01*
X10257857Y-14460881D01*
X10248333Y-14479928D01*
X10238810Y-14489452D01*
X10219762Y-14498976D01*
X10162619Y-14498976D01*
X10143571Y-14489452D01*
X10134048Y-14479928D01*
X10495952Y-14498976D02*
X10495952Y-14298976D01*
X10581667Y-14498976D02*
X10581667Y-14394214D01*
X10572143Y-14375167D01*
X10553095Y-14365643D01*
X10524524Y-14365643D01*
X10505476Y-14375167D01*
X10495952Y-14384690D01*
X10705476Y-14498976D02*
X10686429Y-14489452D01*
X10676905Y-14479928D01*
X10667381Y-14460881D01*
X10667381Y-14403738D01*
X10676905Y-14384690D01*
X10686429Y-14375167D01*
X10705476Y-14365643D01*
X10734048Y-14365643D01*
X10753095Y-14375167D01*
X10762619Y-14384690D01*
X10772143Y-14403738D01*
X10772143Y-14460881D01*
X10762619Y-14479928D01*
X10753095Y-14489452D01*
X10734048Y-14498976D01*
X10705476Y-14498976D01*
X10886429Y-14498976D02*
X10867381Y-14489452D01*
X10857857Y-14470405D01*
X10857857Y-14298976D01*
X11038810Y-14489452D02*
X11019762Y-14498976D01*
X10981667Y-14498976D01*
X10962619Y-14489452D01*
X10953095Y-14470405D01*
X10953095Y-14394214D01*
X10962619Y-14375167D01*
X10981667Y-14365643D01*
X11019762Y-14365643D01*
X11038810Y-14375167D01*
X11048333Y-14394214D01*
X11048333Y-14413262D01*
X10953095Y-14432309D01*
X11124524Y-14489452D02*
X11143571Y-14498976D01*
X11181667Y-14498976D01*
X11200714Y-14489452D01*
X11210238Y-14470405D01*
X11210238Y-14460881D01*
X11200714Y-14441833D01*
X11181667Y-14432309D01*
X11153095Y-14432309D01*
X11134048Y-14422786D01*
X11124524Y-14403738D01*
X11124524Y-14394214D01*
X11134048Y-14375167D01*
X11153095Y-14365643D01*
X11181667Y-14365643D01*
X11200714Y-14375167D01*
X11276905Y-14575167D02*
X11286428Y-14565643D01*
X11305476Y-14537071D01*
X11315000Y-14518024D01*
X11324524Y-14489452D01*
X11334048Y-14441833D01*
X11334048Y-14403738D01*
X11324524Y-14356119D01*
X11315000Y-14327548D01*
X11305476Y-14308500D01*
X11286428Y-14279928D01*
X11276905Y-14270405D01*
D14*
X6465000Y-14632500D02*
X6465000Y-14712500D01*
X6425000Y-14672500D02*
X6505000Y-14672500D01*
D11*
X6800714Y-14562976D02*
X6819762Y-14562976D01*
X6838809Y-14572500D01*
X6848333Y-14582024D01*
X6857857Y-14601071D01*
X6867381Y-14639167D01*
X6867381Y-14686786D01*
X6857857Y-14724881D01*
X6848333Y-14743928D01*
X6838809Y-14753452D01*
X6819762Y-14762976D01*
X6800714Y-14762976D01*
X6781667Y-14753452D01*
X6772143Y-14743928D01*
X6762619Y-14724881D01*
X6753095Y-14686786D01*
X6753095Y-14639167D01*
X6762619Y-14601071D01*
X6772143Y-14582024D01*
X6781667Y-14572500D01*
X6800714Y-14562976D01*
X6953095Y-14743928D02*
X6962619Y-14753452D01*
X6953095Y-14762976D01*
X6943571Y-14753452D01*
X6953095Y-14743928D01*
X6953095Y-14762976D01*
X7076905Y-14648690D02*
X7057857Y-14639167D01*
X7048333Y-14629643D01*
X7038809Y-14610595D01*
X7038809Y-14601071D01*
X7048333Y-14582024D01*
X7057857Y-14572500D01*
X7076905Y-14562976D01*
X7115000Y-14562976D01*
X7134048Y-14572500D01*
X7143571Y-14582024D01*
X7153095Y-14601071D01*
X7153095Y-14610595D01*
X7143571Y-14629643D01*
X7134048Y-14639167D01*
X7115000Y-14648690D01*
X7076905Y-14648690D01*
X7057857Y-14658214D01*
X7048333Y-14667738D01*
X7038809Y-14686786D01*
X7038809Y-14724881D01*
X7048333Y-14743928D01*
X7057857Y-14753452D01*
X7076905Y-14762976D01*
X7115000Y-14762976D01*
X7134048Y-14753452D01*
X7143571Y-14743928D01*
X7153095Y-14724881D01*
X7153095Y-14686786D01*
X7143571Y-14667738D01*
X7134048Y-14658214D01*
X7115000Y-14648690D01*
X7276905Y-14562976D02*
X7295952Y-14562976D01*
X7315000Y-14572500D01*
X7324524Y-14582024D01*
X7334048Y-14601071D01*
X7343571Y-14639167D01*
X7343571Y-14686786D01*
X7334048Y-14724881D01*
X7324524Y-14743928D01*
X7315000Y-14753452D01*
X7295952Y-14762976D01*
X7276905Y-14762976D01*
X7257857Y-14753452D01*
X7248333Y-14743928D01*
X7238809Y-14724881D01*
X7229286Y-14686786D01*
X7229286Y-14639167D01*
X7238809Y-14601071D01*
X7248333Y-14582024D01*
X7257857Y-14572500D01*
X7276905Y-14562976D01*
X7467381Y-14562976D02*
X7486428Y-14562976D01*
X7505476Y-14572500D01*
X7515000Y-14582024D01*
X7524524Y-14601071D01*
X7534048Y-14639167D01*
X7534048Y-14686786D01*
X7524524Y-14724881D01*
X7515000Y-14743928D01*
X7505476Y-14753452D01*
X7486428Y-14762976D01*
X7467381Y-14762976D01*
X7448333Y-14753452D01*
X7438809Y-14743928D01*
X7429286Y-14724881D01*
X7419762Y-14686786D01*
X7419762Y-14639167D01*
X7429286Y-14601071D01*
X7438809Y-14582024D01*
X7448333Y-14572500D01*
X7467381Y-14562976D01*
X7619762Y-14762976D02*
X7619762Y-14629643D01*
X7619762Y-14648690D02*
X7629286Y-14639167D01*
X7648333Y-14629643D01*
X7676905Y-14629643D01*
X7695952Y-14639167D01*
X7705476Y-14658214D01*
X7705476Y-14762976D01*
X7705476Y-14658214D02*
X7715000Y-14639167D01*
X7734048Y-14629643D01*
X7762619Y-14629643D01*
X7781667Y-14639167D01*
X7791190Y-14658214D01*
X7791190Y-14762976D01*
X7886428Y-14762976D02*
X7886428Y-14629643D01*
X7886428Y-14648690D02*
X7895952Y-14639167D01*
X7915000Y-14629643D01*
X7943571Y-14629643D01*
X7962619Y-14639167D01*
X7972143Y-14658214D01*
X7972143Y-14762976D01*
X7972143Y-14658214D02*
X7981667Y-14639167D01*
X8000714Y-14629643D01*
X8029286Y-14629643D01*
X8048333Y-14639167D01*
X8057857Y-14658214D01*
X8057857Y-14762976D01*
X8448333Y-14553452D02*
X8276905Y-14810595D01*
X8705476Y-14562976D02*
X8724524Y-14562976D01*
X8743571Y-14572500D01*
X8753095Y-14582024D01*
X8762619Y-14601071D01*
X8772143Y-14639167D01*
X8772143Y-14686786D01*
X8762619Y-14724881D01*
X8753095Y-14743928D01*
X8743571Y-14753452D01*
X8724524Y-14762976D01*
X8705476Y-14762976D01*
X8686429Y-14753452D01*
X8676905Y-14743928D01*
X8667381Y-14724881D01*
X8657857Y-14686786D01*
X8657857Y-14639167D01*
X8667381Y-14601071D01*
X8676905Y-14582024D01*
X8686429Y-14572500D01*
X8705476Y-14562976D01*
X8857857Y-14743928D02*
X8867381Y-14753452D01*
X8857857Y-14762976D01*
X8848333Y-14753452D01*
X8857857Y-14743928D01*
X8857857Y-14762976D01*
X8991190Y-14562976D02*
X9010238Y-14562976D01*
X9029286Y-14572500D01*
X9038810Y-14582024D01*
X9048333Y-14601071D01*
X9057857Y-14639167D01*
X9057857Y-14686786D01*
X9048333Y-14724881D01*
X9038810Y-14743928D01*
X9029286Y-14753452D01*
X9010238Y-14762976D01*
X8991190Y-14762976D01*
X8972143Y-14753452D01*
X8962619Y-14743928D01*
X8953095Y-14724881D01*
X8943571Y-14686786D01*
X8943571Y-14639167D01*
X8953095Y-14601071D01*
X8962619Y-14582024D01*
X8972143Y-14572500D01*
X8991190Y-14562976D01*
X9124524Y-14562976D02*
X9248333Y-14562976D01*
X9181667Y-14639167D01*
X9210238Y-14639167D01*
X9229286Y-14648690D01*
X9238810Y-14658214D01*
X9248333Y-14677262D01*
X9248333Y-14724881D01*
X9238810Y-14743928D01*
X9229286Y-14753452D01*
X9210238Y-14762976D01*
X9153095Y-14762976D01*
X9134048Y-14753452D01*
X9124524Y-14743928D01*
X9438810Y-14762976D02*
X9324524Y-14762976D01*
X9381667Y-14762976D02*
X9381667Y-14562976D01*
X9362619Y-14591548D01*
X9343571Y-14610595D01*
X9324524Y-14620119D01*
X9619762Y-14562976D02*
X9524524Y-14562976D01*
X9515000Y-14658214D01*
X9524524Y-14648690D01*
X9543571Y-14639167D01*
X9591190Y-14639167D01*
X9610238Y-14648690D01*
X9619762Y-14658214D01*
X9629286Y-14677262D01*
X9629286Y-14724881D01*
X9619762Y-14743928D01*
X9610238Y-14753452D01*
X9591190Y-14762976D01*
X9543571Y-14762976D01*
X9524524Y-14753452D01*
X9515000Y-14743928D01*
X9705476Y-14562976D02*
X9705476Y-14601071D01*
X9781667Y-14562976D02*
X9781667Y-14601071D01*
X10076905Y-14839167D02*
X10067381Y-14829643D01*
X10048333Y-14801071D01*
X10038810Y-14782024D01*
X10029286Y-14753452D01*
X10019762Y-14705833D01*
X10019762Y-14667738D01*
X10029286Y-14620119D01*
X10038810Y-14591548D01*
X10048333Y-14572500D01*
X10067381Y-14543928D01*
X10076905Y-14534405D01*
X10238810Y-14629643D02*
X10238810Y-14762976D01*
X10191190Y-14553452D02*
X10143571Y-14696309D01*
X10267381Y-14696309D01*
X10372143Y-14648690D02*
X10353095Y-14639167D01*
X10343571Y-14629643D01*
X10334048Y-14610595D01*
X10334048Y-14601071D01*
X10343571Y-14582024D01*
X10353095Y-14572500D01*
X10372143Y-14562976D01*
X10410238Y-14562976D01*
X10429286Y-14572500D01*
X10438810Y-14582024D01*
X10448333Y-14601071D01*
X10448333Y-14610595D01*
X10438810Y-14629643D01*
X10429286Y-14639167D01*
X10410238Y-14648690D01*
X10372143Y-14648690D01*
X10353095Y-14658214D01*
X10343571Y-14667738D01*
X10334048Y-14686786D01*
X10334048Y-14724881D01*
X10343571Y-14743928D01*
X10353095Y-14753452D01*
X10372143Y-14762976D01*
X10410238Y-14762976D01*
X10429286Y-14753452D01*
X10438810Y-14743928D01*
X10448333Y-14724881D01*
X10448333Y-14686786D01*
X10438810Y-14667738D01*
X10429286Y-14658214D01*
X10410238Y-14648690D01*
X10686429Y-14762976D02*
X10686429Y-14562976D01*
X10772143Y-14762976D02*
X10772143Y-14658214D01*
X10762619Y-14639167D01*
X10743571Y-14629643D01*
X10715000Y-14629643D01*
X10695952Y-14639167D01*
X10686429Y-14648690D01*
X10895952Y-14762976D02*
X10876905Y-14753452D01*
X10867381Y-14743928D01*
X10857857Y-14724881D01*
X10857857Y-14667738D01*
X10867381Y-14648690D01*
X10876905Y-14639167D01*
X10895952Y-14629643D01*
X10924524Y-14629643D01*
X10943571Y-14639167D01*
X10953095Y-14648690D01*
X10962619Y-14667738D01*
X10962619Y-14724881D01*
X10953095Y-14743928D01*
X10943571Y-14753452D01*
X10924524Y-14762976D01*
X10895952Y-14762976D01*
X11076905Y-14762976D02*
X11057857Y-14753452D01*
X11048333Y-14734405D01*
X11048333Y-14562976D01*
X11229286Y-14753452D02*
X11210238Y-14762976D01*
X11172143Y-14762976D01*
X11153095Y-14753452D01*
X11143571Y-14734405D01*
X11143571Y-14658214D01*
X11153095Y-14639167D01*
X11172143Y-14629643D01*
X11210238Y-14629643D01*
X11229286Y-14639167D01*
X11238809Y-14658214D01*
X11238809Y-14677262D01*
X11143571Y-14696309D01*
X11315000Y-14753452D02*
X11334048Y-14762976D01*
X11372143Y-14762976D01*
X11391190Y-14753452D01*
X11400714Y-14734405D01*
X11400714Y-14724881D01*
X11391190Y-14705833D01*
X11372143Y-14696309D01*
X11343571Y-14696309D01*
X11324524Y-14686786D01*
X11315000Y-14667738D01*
X11315000Y-14658214D01*
X11324524Y-14639167D01*
X11343571Y-14629643D01*
X11372143Y-14629643D01*
X11391190Y-14639167D01*
X11467381Y-14839167D02*
X11476905Y-14829643D01*
X11495952Y-14801071D01*
X11505476Y-14782024D01*
X11515000Y-14753452D01*
X11524524Y-14705833D01*
X11524524Y-14667738D01*
X11515000Y-14620119D01*
X11505476Y-14591548D01*
X11495952Y-14572500D01*
X11476905Y-14543928D01*
X11467381Y-14534405D01*
D15*
X6490356Y-14971856D02*
X6490356Y-14901144D01*
X6419644Y-14901144D01*
X6419644Y-14971856D01*
X6490356Y-14971856D01*
D11*
X6867381Y-15026976D02*
X6753095Y-15026976D01*
X6810238Y-15026976D02*
X6810238Y-14826976D01*
X6791190Y-14855548D01*
X6772143Y-14874595D01*
X6753095Y-14884119D01*
X6953095Y-15007928D02*
X6962619Y-15017452D01*
X6953095Y-15026976D01*
X6943571Y-15017452D01*
X6953095Y-15007928D01*
X6953095Y-15026976D01*
X7086428Y-14826976D02*
X7105476Y-14826976D01*
X7124524Y-14836500D01*
X7134048Y-14846024D01*
X7143571Y-14865071D01*
X7153095Y-14903167D01*
X7153095Y-14950786D01*
X7143571Y-14988881D01*
X7134048Y-15007928D01*
X7124524Y-15017452D01*
X7105476Y-15026976D01*
X7086428Y-15026976D01*
X7067381Y-15017452D01*
X7057857Y-15007928D01*
X7048333Y-14988881D01*
X7038809Y-14950786D01*
X7038809Y-14903167D01*
X7048333Y-14865071D01*
X7057857Y-14846024D01*
X7067381Y-14836500D01*
X7086428Y-14826976D01*
X7276905Y-14826976D02*
X7295952Y-14826976D01*
X7315000Y-14836500D01*
X7324524Y-14846024D01*
X7334048Y-14865071D01*
X7343571Y-14903167D01*
X7343571Y-14950786D01*
X7334048Y-14988881D01*
X7324524Y-15007928D01*
X7315000Y-15017452D01*
X7295952Y-15026976D01*
X7276905Y-15026976D01*
X7257857Y-15017452D01*
X7248333Y-15007928D01*
X7238809Y-14988881D01*
X7229286Y-14950786D01*
X7229286Y-14903167D01*
X7238809Y-14865071D01*
X7248333Y-14846024D01*
X7257857Y-14836500D01*
X7276905Y-14826976D01*
X7467381Y-14826976D02*
X7486428Y-14826976D01*
X7505476Y-14836500D01*
X7515000Y-14846024D01*
X7524524Y-14865071D01*
X7534048Y-14903167D01*
X7534048Y-14950786D01*
X7524524Y-14988881D01*
X7515000Y-15007928D01*
X7505476Y-15017452D01*
X7486428Y-15026976D01*
X7467381Y-15026976D01*
X7448333Y-15017452D01*
X7438809Y-15007928D01*
X7429286Y-14988881D01*
X7419762Y-14950786D01*
X7419762Y-14903167D01*
X7429286Y-14865071D01*
X7438809Y-14846024D01*
X7448333Y-14836500D01*
X7467381Y-14826976D01*
X7619762Y-15026976D02*
X7619762Y-14893643D01*
X7619762Y-14912690D02*
X7629286Y-14903167D01*
X7648333Y-14893643D01*
X7676905Y-14893643D01*
X7695952Y-14903167D01*
X7705476Y-14922214D01*
X7705476Y-15026976D01*
X7705476Y-14922214D02*
X7715000Y-14903167D01*
X7734048Y-14893643D01*
X7762619Y-14893643D01*
X7781667Y-14903167D01*
X7791190Y-14922214D01*
X7791190Y-15026976D01*
X7886428Y-15026976D02*
X7886428Y-14893643D01*
X7886428Y-14912690D02*
X7895952Y-14903167D01*
X7915000Y-14893643D01*
X7943571Y-14893643D01*
X7962619Y-14903167D01*
X7972143Y-14922214D01*
X7972143Y-15026976D01*
X7972143Y-14922214D02*
X7981667Y-14903167D01*
X8000714Y-14893643D01*
X8029286Y-14893643D01*
X8048333Y-14903167D01*
X8057857Y-14922214D01*
X8057857Y-15026976D01*
X8448333Y-14817452D02*
X8276905Y-15074595D01*
X8705476Y-14826976D02*
X8724524Y-14826976D01*
X8743571Y-14836500D01*
X8753095Y-14846024D01*
X8762619Y-14865071D01*
X8772143Y-14903167D01*
X8772143Y-14950786D01*
X8762619Y-14988881D01*
X8753095Y-15007928D01*
X8743571Y-15017452D01*
X8724524Y-15026976D01*
X8705476Y-15026976D01*
X8686429Y-15017452D01*
X8676905Y-15007928D01*
X8667381Y-14988881D01*
X8657857Y-14950786D01*
X8657857Y-14903167D01*
X8667381Y-14865071D01*
X8676905Y-14846024D01*
X8686429Y-14836500D01*
X8705476Y-14826976D01*
X8857857Y-15007928D02*
X8867381Y-15017452D01*
X8857857Y-15026976D01*
X8848333Y-15017452D01*
X8857857Y-15007928D01*
X8857857Y-15026976D01*
X8991190Y-14826976D02*
X9010238Y-14826976D01*
X9029286Y-14836500D01*
X9038810Y-14846024D01*
X9048333Y-14865071D01*
X9057857Y-14903167D01*
X9057857Y-14950786D01*
X9048333Y-14988881D01*
X9038810Y-15007928D01*
X9029286Y-15017452D01*
X9010238Y-15026976D01*
X8991190Y-15026976D01*
X8972143Y-15017452D01*
X8962619Y-15007928D01*
X8953095Y-14988881D01*
X8943571Y-14950786D01*
X8943571Y-14903167D01*
X8953095Y-14865071D01*
X8962619Y-14846024D01*
X8972143Y-14836500D01*
X8991190Y-14826976D01*
X9124524Y-14826976D02*
X9248333Y-14826976D01*
X9181667Y-14903167D01*
X9210238Y-14903167D01*
X9229286Y-14912690D01*
X9238810Y-14922214D01*
X9248333Y-14941262D01*
X9248333Y-14988881D01*
X9238810Y-15007928D01*
X9229286Y-15017452D01*
X9210238Y-15026976D01*
X9153095Y-15026976D01*
X9134048Y-15017452D01*
X9124524Y-15007928D01*
X9343571Y-15026976D02*
X9381667Y-15026976D01*
X9400714Y-15017452D01*
X9410238Y-15007928D01*
X9429286Y-14979357D01*
X9438810Y-14941262D01*
X9438810Y-14865071D01*
X9429286Y-14846024D01*
X9419762Y-14836500D01*
X9400714Y-14826976D01*
X9362619Y-14826976D01*
X9343571Y-14836500D01*
X9334048Y-14846024D01*
X9324524Y-14865071D01*
X9324524Y-14912690D01*
X9334048Y-14931738D01*
X9343571Y-14941262D01*
X9362619Y-14950786D01*
X9400714Y-14950786D01*
X9419762Y-14941262D01*
X9429286Y-14931738D01*
X9438810Y-14912690D01*
X9610238Y-14893643D02*
X9610238Y-15026976D01*
X9562619Y-14817452D02*
X9515000Y-14960309D01*
X9638810Y-14960309D01*
X9705476Y-14826976D02*
X9705476Y-14865071D01*
X9781667Y-14826976D02*
X9781667Y-14865071D01*
X10076905Y-15103167D02*
X10067381Y-15093643D01*
X10048333Y-15065071D01*
X10038810Y-15046024D01*
X10029286Y-15017452D01*
X10019762Y-14969833D01*
X10019762Y-14931738D01*
X10029286Y-14884119D01*
X10038810Y-14855548D01*
X10048333Y-14836500D01*
X10067381Y-14807928D01*
X10076905Y-14798405D01*
X10134048Y-14826976D02*
X10267381Y-14826976D01*
X10181667Y-15026976D01*
X10381667Y-14826976D02*
X10400714Y-14826976D01*
X10419762Y-14836500D01*
X10429286Y-14846024D01*
X10438810Y-14865071D01*
X10448333Y-14903167D01*
X10448333Y-14950786D01*
X10438810Y-14988881D01*
X10429286Y-15007928D01*
X10419762Y-15017452D01*
X10400714Y-15026976D01*
X10381667Y-15026976D01*
X10362619Y-15017452D01*
X10353095Y-15007928D01*
X10343571Y-14988881D01*
X10334048Y-14950786D01*
X10334048Y-14903167D01*
X10343571Y-14865071D01*
X10353095Y-14846024D01*
X10362619Y-14836500D01*
X10381667Y-14826976D01*
X10686429Y-15026976D02*
X10686429Y-14826976D01*
X10772143Y-15026976D02*
X10772143Y-14922214D01*
X10762619Y-14903167D01*
X10743571Y-14893643D01*
X10715000Y-14893643D01*
X10695952Y-14903167D01*
X10686429Y-14912690D01*
X10895952Y-15026976D02*
X10876905Y-15017452D01*
X10867381Y-15007928D01*
X10857857Y-14988881D01*
X10857857Y-14931738D01*
X10867381Y-14912690D01*
X10876905Y-14903167D01*
X10895952Y-14893643D01*
X10924524Y-14893643D01*
X10943571Y-14903167D01*
X10953095Y-14912690D01*
X10962619Y-14931738D01*
X10962619Y-14988881D01*
X10953095Y-15007928D01*
X10943571Y-15017452D01*
X10924524Y-15026976D01*
X10895952Y-15026976D01*
X11076905Y-15026976D02*
X11057857Y-15017452D01*
X11048333Y-14998405D01*
X11048333Y-14826976D01*
X11229286Y-15017452D02*
X11210238Y-15026976D01*
X11172143Y-15026976D01*
X11153095Y-15017452D01*
X11143571Y-14998405D01*
X11143571Y-14922214D01*
X11153095Y-14903167D01*
X11172143Y-14893643D01*
X11210238Y-14893643D01*
X11229286Y-14903167D01*
X11238809Y-14922214D01*
X11238809Y-14941262D01*
X11143571Y-14960309D01*
X11315000Y-15017452D02*
X11334048Y-15026976D01*
X11372143Y-15026976D01*
X11391190Y-15017452D01*
X11400714Y-14998405D01*
X11400714Y-14988881D01*
X11391190Y-14969833D01*
X11372143Y-14960309D01*
X11343571Y-14960309D01*
X11324524Y-14950786D01*
X11315000Y-14931738D01*
X11315000Y-14922214D01*
X11324524Y-14903167D01*
X11343571Y-14893643D01*
X11372143Y-14893643D01*
X11391190Y-14903167D01*
X11467381Y-15103167D02*
X11476905Y-15093643D01*
X11495952Y-15065071D01*
X11505476Y-15046024D01*
X11515000Y-15017452D01*
X11524524Y-14969833D01*
X11524524Y-14931738D01*
X11515000Y-14884119D01*
X11505476Y-14855548D01*
X11495952Y-14836500D01*
X11476905Y-14807928D01*
X11467381Y-14798405D01*
D16*
X6450000Y-15255500D02*
X6505000Y-15200500D01*
X6450000Y-15145500D01*
X6395000Y-15200500D01*
X6450000Y-15255500D01*
D11*
X6867381Y-15290976D02*
X6753095Y-15290976D01*
X6810238Y-15290976D02*
X6810238Y-15090976D01*
X6791190Y-15119548D01*
X6772143Y-15138595D01*
X6753095Y-15148119D01*
X6953095Y-15271928D02*
X6962619Y-15281452D01*
X6953095Y-15290976D01*
X6943571Y-15281452D01*
X6953095Y-15271928D01*
X6953095Y-15290976D01*
X7153095Y-15290976D02*
X7038809Y-15290976D01*
X7095952Y-15290976D02*
X7095952Y-15090976D01*
X7076905Y-15119548D01*
X7057857Y-15138595D01*
X7038809Y-15148119D01*
X7276905Y-15090976D02*
X7295952Y-15090976D01*
X7315000Y-15100500D01*
X7324524Y-15110024D01*
X7334048Y-15129071D01*
X7343571Y-15167167D01*
X7343571Y-15214786D01*
X7334048Y-15252881D01*
X7324524Y-15271928D01*
X7315000Y-15281452D01*
X7295952Y-15290976D01*
X7276905Y-15290976D01*
X7257857Y-15281452D01*
X7248333Y-15271928D01*
X7238809Y-15252881D01*
X7229286Y-15214786D01*
X7229286Y-15167167D01*
X7238809Y-15129071D01*
X7248333Y-15110024D01*
X7257857Y-15100500D01*
X7276905Y-15090976D01*
X7467381Y-15090976D02*
X7486428Y-15090976D01*
X7505476Y-15100500D01*
X7515000Y-15110024D01*
X7524524Y-15129071D01*
X7534048Y-15167167D01*
X7534048Y-15214786D01*
X7524524Y-15252881D01*
X7515000Y-15271928D01*
X7505476Y-15281452D01*
X7486428Y-15290976D01*
X7467381Y-15290976D01*
X7448333Y-15281452D01*
X7438809Y-15271928D01*
X7429286Y-15252881D01*
X7419762Y-15214786D01*
X7419762Y-15167167D01*
X7429286Y-15129071D01*
X7438809Y-15110024D01*
X7448333Y-15100500D01*
X7467381Y-15090976D01*
X7619762Y-15290976D02*
X7619762Y-15157643D01*
X7619762Y-15176690D02*
X7629286Y-15167167D01*
X7648333Y-15157643D01*
X7676905Y-15157643D01*
X7695952Y-15167167D01*
X7705476Y-15186214D01*
X7705476Y-15290976D01*
X7705476Y-15186214D02*
X7715000Y-15167167D01*
X7734048Y-15157643D01*
X7762619Y-15157643D01*
X7781667Y-15167167D01*
X7791190Y-15186214D01*
X7791190Y-15290976D01*
X7886428Y-15290976D02*
X7886428Y-15157643D01*
X7886428Y-15176690D02*
X7895952Y-15167167D01*
X7915000Y-15157643D01*
X7943571Y-15157643D01*
X7962619Y-15167167D01*
X7972143Y-15186214D01*
X7972143Y-15290976D01*
X7972143Y-15186214D02*
X7981667Y-15167167D01*
X8000714Y-15157643D01*
X8029286Y-15157643D01*
X8048333Y-15167167D01*
X8057857Y-15186214D01*
X8057857Y-15290976D01*
X8448333Y-15081452D02*
X8276905Y-15338595D01*
X8705476Y-15090976D02*
X8724524Y-15090976D01*
X8743571Y-15100500D01*
X8753095Y-15110024D01*
X8762619Y-15129071D01*
X8772143Y-15167167D01*
X8772143Y-15214786D01*
X8762619Y-15252881D01*
X8753095Y-15271928D01*
X8743571Y-15281452D01*
X8724524Y-15290976D01*
X8705476Y-15290976D01*
X8686429Y-15281452D01*
X8676905Y-15271928D01*
X8667381Y-15252881D01*
X8657857Y-15214786D01*
X8657857Y-15167167D01*
X8667381Y-15129071D01*
X8676905Y-15110024D01*
X8686429Y-15100500D01*
X8705476Y-15090976D01*
X8857857Y-15271928D02*
X8867381Y-15281452D01*
X8857857Y-15290976D01*
X8848333Y-15281452D01*
X8857857Y-15271928D01*
X8857857Y-15290976D01*
X8991190Y-15090976D02*
X9010238Y-15090976D01*
X9029286Y-15100500D01*
X9038810Y-15110024D01*
X9048333Y-15129071D01*
X9057857Y-15167167D01*
X9057857Y-15214786D01*
X9048333Y-15252881D01*
X9038810Y-15271928D01*
X9029286Y-15281452D01*
X9010238Y-15290976D01*
X8991190Y-15290976D01*
X8972143Y-15281452D01*
X8962619Y-15271928D01*
X8953095Y-15252881D01*
X8943571Y-15214786D01*
X8943571Y-15167167D01*
X8953095Y-15129071D01*
X8962619Y-15110024D01*
X8972143Y-15100500D01*
X8991190Y-15090976D01*
X9229286Y-15157643D02*
X9229286Y-15290976D01*
X9181667Y-15081452D02*
X9134048Y-15224309D01*
X9257857Y-15224309D01*
X9315000Y-15090976D02*
X9438810Y-15090976D01*
X9372143Y-15167167D01*
X9400714Y-15167167D01*
X9419762Y-15176690D01*
X9429286Y-15186214D01*
X9438810Y-15205262D01*
X9438810Y-15252881D01*
X9429286Y-15271928D01*
X9419762Y-15281452D01*
X9400714Y-15290976D01*
X9343571Y-15290976D01*
X9324524Y-15281452D01*
X9315000Y-15271928D01*
X9505476Y-15090976D02*
X9629286Y-15090976D01*
X9562619Y-15167167D01*
X9591190Y-15167167D01*
X9610238Y-15176690D01*
X9619762Y-15186214D01*
X9629286Y-15205262D01*
X9629286Y-15252881D01*
X9619762Y-15271928D01*
X9610238Y-15281452D01*
X9591190Y-15290976D01*
X9534048Y-15290976D01*
X9515000Y-15281452D01*
X9505476Y-15271928D01*
X9705476Y-15090976D02*
X9705476Y-15129071D01*
X9781667Y-15090976D02*
X9781667Y-15129071D01*
X10076905Y-15367167D02*
X10067381Y-15357643D01*
X10048333Y-15329071D01*
X10038810Y-15310024D01*
X10029286Y-15281452D01*
X10019762Y-15233833D01*
X10019762Y-15195738D01*
X10029286Y-15148119D01*
X10038810Y-15119548D01*
X10048333Y-15100500D01*
X10067381Y-15071928D01*
X10076905Y-15062405D01*
X10134048Y-15090976D02*
X10257857Y-15090976D01*
X10191190Y-15167167D01*
X10219762Y-15167167D01*
X10238810Y-15176690D01*
X10248333Y-15186214D01*
X10257857Y-15205262D01*
X10257857Y-15252881D01*
X10248333Y-15271928D01*
X10238810Y-15281452D01*
X10219762Y-15290976D01*
X10162619Y-15290976D01*
X10143571Y-15281452D01*
X10134048Y-15271928D01*
X10429286Y-15090976D02*
X10391190Y-15090976D01*
X10372143Y-15100500D01*
X10362619Y-15110024D01*
X10343571Y-15138595D01*
X10334048Y-15176690D01*
X10334048Y-15252881D01*
X10343571Y-15271928D01*
X10353095Y-15281452D01*
X10372143Y-15290976D01*
X10410238Y-15290976D01*
X10429286Y-15281452D01*
X10438810Y-15271928D01*
X10448333Y-15252881D01*
X10448333Y-15205262D01*
X10438810Y-15186214D01*
X10429286Y-15176690D01*
X10410238Y-15167167D01*
X10372143Y-15167167D01*
X10353095Y-15176690D01*
X10343571Y-15186214D01*
X10334048Y-15205262D01*
X10686429Y-15290976D02*
X10686429Y-15090976D01*
X10772143Y-15290976D02*
X10772143Y-15186214D01*
X10762619Y-15167167D01*
X10743571Y-15157643D01*
X10715000Y-15157643D01*
X10695952Y-15167167D01*
X10686429Y-15176690D01*
X10895952Y-15290976D02*
X10876905Y-15281452D01*
X10867381Y-15271928D01*
X10857857Y-15252881D01*
X10857857Y-15195738D01*
X10867381Y-15176690D01*
X10876905Y-15167167D01*
X10895952Y-15157643D01*
X10924524Y-15157643D01*
X10943571Y-15167167D01*
X10953095Y-15176690D01*
X10962619Y-15195738D01*
X10962619Y-15252881D01*
X10953095Y-15271928D01*
X10943571Y-15281452D01*
X10924524Y-15290976D01*
X10895952Y-15290976D01*
X11076905Y-15290976D02*
X11057857Y-15281452D01*
X11048333Y-15262405D01*
X11048333Y-15090976D01*
X11229286Y-15281452D02*
X11210238Y-15290976D01*
X11172143Y-15290976D01*
X11153095Y-15281452D01*
X11143571Y-15262405D01*
X11143571Y-15186214D01*
X11153095Y-15167167D01*
X11172143Y-15157643D01*
X11210238Y-15157643D01*
X11229286Y-15167167D01*
X11238809Y-15186214D01*
X11238809Y-15205262D01*
X11143571Y-15224309D01*
X11315000Y-15281452D02*
X11334048Y-15290976D01*
X11372143Y-15290976D01*
X11391190Y-15281452D01*
X11400714Y-15262405D01*
X11400714Y-15252881D01*
X11391190Y-15233833D01*
X11372143Y-15224309D01*
X11343571Y-15224309D01*
X11324524Y-15214786D01*
X11315000Y-15195738D01*
X11315000Y-15186214D01*
X11324524Y-15167167D01*
X11343571Y-15157643D01*
X11372143Y-15157643D01*
X11391190Y-15167167D01*
X11467381Y-15367167D02*
X11476905Y-15357643D01*
X11495952Y-15329071D01*
X11505476Y-15310024D01*
X11515000Y-15281452D01*
X11524524Y-15233833D01*
X11524524Y-15195738D01*
X11515000Y-15148119D01*
X11505476Y-15119548D01*
X11495952Y-15100500D01*
X11476905Y-15071928D01*
X11467381Y-15062405D01*
M02*
