G04 #@! TF.GenerationSoftware,KiCad,Pcbnew,(6.0.8)*
G04 #@! TF.CreationDate,2022-10-16T23:30:32+02:00*
G04 #@! TF.ProjectId,RPiWattMeterHatv3,52506957-6174-4744-9d65-746572486174,rev?*
G04 #@! TF.SameCoordinates,Original*
G04 #@! TF.FileFunction,Copper,L1,Top*
G04 #@! TF.FilePolarity,Positive*
%FSLAX45Y45*%
G04 Gerber Fmt 4.5, Leading zero omitted, Abs format (unit mm)*
G04 Created by KiCad (PCBNEW (6.0.8)) date 2022-10-16 23:30:32*
%MOMM*%
%LPD*%
G01*
G04 APERTURE LIST*
G04 Aperture macros list*
%AMRoundRect*
0 Rectangle with rounded corners*
0 $1 Rounding radius*
0 $2 $3 $4 $5 $6 $7 $8 $9 X,Y pos of 4 corners*
0 Add a 4 corners polygon primitive as box body*
4,1,4,$2,$3,$4,$5,$6,$7,$8,$9,$2,$3,0*
0 Add four circle primitives for the rounded corners*
1,1,$1+$1,$2,$3*
1,1,$1+$1,$4,$5*
1,1,$1+$1,$6,$7*
1,1,$1+$1,$8,$9*
0 Add four rect primitives between the rounded corners*
20,1,$1+$1,$2,$3,$4,$5,0*
20,1,$1+$1,$4,$5,$6,$7,0*
20,1,$1+$1,$6,$7,$8,$9,0*
20,1,$1+$1,$8,$9,$2,$3,0*%
G04 Aperture macros list end*
G04 #@! TA.AperFunction,ComponentPad*
%ADD10R,1.600000X1.600000*%
G04 #@! TD*
G04 #@! TA.AperFunction,ComponentPad*
%ADD11O,1.600000X1.600000*%
G04 #@! TD*
G04 #@! TA.AperFunction,ComponentPad*
%ADD12C,1.750000*%
G04 #@! TD*
G04 #@! TA.AperFunction,ComponentPad*
%ADD13RoundRect,0.437500X0.437500X-0.437500X0.437500X0.437500X-0.437500X0.437500X-0.437500X-0.437500X0*%
G04 #@! TD*
G04 #@! TA.AperFunction,SMDPad,CuDef*
%ADD14RoundRect,0.250000X0.625000X-0.400000X0.625000X0.400000X-0.625000X0.400000X-0.625000X-0.400000X0*%
G04 #@! TD*
G04 #@! TA.AperFunction,SMDPad,CuDef*
%ADD15RoundRect,0.250000X0.400000X0.625000X-0.400000X0.625000X-0.400000X-0.625000X0.400000X-0.625000X0*%
G04 #@! TD*
G04 #@! TA.AperFunction,ComponentPad*
%ADD16RoundRect,0.437500X0.437500X0.437500X-0.437500X0.437500X-0.437500X-0.437500X0.437500X-0.437500X0*%
G04 #@! TD*
G04 #@! TA.AperFunction,ComponentPad*
%ADD17C,2.000000*%
G04 #@! TD*
G04 #@! TA.AperFunction,ComponentPad*
%ADD18C,1.500000*%
G04 #@! TD*
G04 #@! TA.AperFunction,ComponentPad*
%ADD19RoundRect,0.375000X0.375000X-0.375000X0.375000X0.375000X-0.375000X0.375000X-0.375000X-0.375000X0*%
G04 #@! TD*
G04 #@! TA.AperFunction,ComponentPad*
%ADD20O,1.700000X1.700000*%
G04 #@! TD*
G04 #@! TA.AperFunction,ComponentPad*
%ADD21R,1.700000X1.700000*%
G04 #@! TD*
G04 #@! TA.AperFunction,ViaPad*
%ADD22C,1.000000*%
G04 #@! TD*
G04 #@! TA.AperFunction,ViaPad*
%ADD23C,0.900000*%
G04 #@! TD*
G04 #@! TA.AperFunction,Conductor*
%ADD24C,0.200000*%
G04 #@! TD*
G04 #@! TA.AperFunction,Conductor*
%ADD25C,0.300000*%
G04 #@! TD*
G04 APERTURE END LIST*
D10*
X11592000Y-7192000D03*
D11*
X11592000Y-6938000D03*
X11592000Y-6684000D03*
X11592000Y-6430000D03*
X11592000Y-6176000D03*
X11592000Y-5922000D03*
X11592000Y-5668000D03*
X11592000Y-5414000D03*
X10830000Y-5414000D03*
X10830000Y-5668000D03*
X10830000Y-5922000D03*
X10830000Y-6176000D03*
X10830000Y-6430000D03*
X10830000Y-6684000D03*
X10830000Y-6938000D03*
X10830000Y-7192000D03*
D12*
X11197000Y-9652000D03*
X11697000Y-9652000D03*
X12197000Y-9652000D03*
X12697000Y-9652000D03*
X12697000Y-12652000D03*
X12197000Y-12652000D03*
X11697000Y-12652000D03*
D13*
X11197000Y-12652000D03*
D14*
X12512000Y-6922000D03*
X12512000Y-7232000D03*
X12887000Y-6922000D03*
X12887000Y-7232000D03*
D15*
X9990000Y-8937000D03*
X10300000Y-8937000D03*
X10490000Y-8937000D03*
X10800000Y-8937000D03*
X10990000Y-8937000D03*
X11300000Y-8937000D03*
X11490000Y-8937000D03*
X11800000Y-8937000D03*
X11990000Y-8937000D03*
X12300000Y-8937000D03*
X12490000Y-8937000D03*
X12800000Y-8937000D03*
D16*
X12770000Y-8037000D03*
D17*
X12520000Y-8037000D03*
X12270000Y-8037000D03*
X12020000Y-8037000D03*
X11770000Y-8037000D03*
X11520000Y-8037000D03*
X11270000Y-8037000D03*
X11020000Y-8037000D03*
X10770000Y-8037000D03*
X10520000Y-8037000D03*
X10270000Y-8037000D03*
X10020000Y-8037000D03*
D10*
X8342000Y-7202000D03*
D11*
X8342000Y-6948000D03*
X8342000Y-6694000D03*
X8342000Y-6440000D03*
X8342000Y-6186000D03*
X8342000Y-5932000D03*
X8342000Y-5678000D03*
X8342000Y-5424000D03*
X7580000Y-5424000D03*
X7580000Y-5678000D03*
X7580000Y-5932000D03*
X7580000Y-6186000D03*
X7580000Y-6440000D03*
X7580000Y-6694000D03*
X7580000Y-6948000D03*
X7580000Y-7202000D03*
D15*
X9562000Y-8937000D03*
X9252000Y-8937000D03*
X8562000Y-8937000D03*
X8252000Y-8937000D03*
D12*
X7997000Y-9652000D03*
X8497000Y-9652000D03*
X8997000Y-9652000D03*
X9497000Y-9652000D03*
X9497000Y-12652000D03*
X8997000Y-12652000D03*
X8497000Y-12652000D03*
D13*
X7997000Y-12652000D03*
D15*
X7062000Y-8937000D03*
X6752000Y-8937000D03*
D14*
X9287000Y-7232000D03*
X9287000Y-6922000D03*
X9662000Y-7232000D03*
X9662000Y-6922000D03*
D17*
X6782000Y-8037088D03*
X7032000Y-8037088D03*
X7282000Y-8037088D03*
X7532000Y-8037088D03*
X7782000Y-8037088D03*
X8032000Y-8037088D03*
X8282000Y-8037088D03*
X8532000Y-8037088D03*
X8782000Y-8037088D03*
X9032000Y-8037088D03*
X9282000Y-8037088D03*
D16*
X9532000Y-8037088D03*
D15*
X9062000Y-8937000D03*
X8752000Y-8937000D03*
X7562000Y-8937000D03*
X7252000Y-8937000D03*
X8062000Y-8937000D03*
X7752000Y-8937000D03*
X16037000Y-8937000D03*
X15727000Y-8937000D03*
X15537000Y-8937000D03*
X15227000Y-8937000D03*
X13537000Y-8937000D03*
X13227000Y-8937000D03*
D14*
X16112000Y-6922000D03*
X16112000Y-7232000D03*
D18*
X6987000Y-10577000D03*
X6987000Y-10927000D03*
X6987000Y-11277000D03*
X6987000Y-11627000D03*
X6987000Y-11977000D03*
D19*
X6987000Y-12327000D03*
D15*
X15037000Y-8937000D03*
X14727000Y-8937000D03*
D13*
X13807000Y-12652000D03*
D12*
X14307000Y-12652000D03*
X14807000Y-12652000D03*
X15307000Y-12652000D03*
X15307000Y-9652000D03*
X14807000Y-9652000D03*
X14307000Y-9652000D03*
X13807000Y-9652000D03*
D11*
X14055000Y-7192000D03*
X14055000Y-6938000D03*
X14055000Y-6684000D03*
X14055000Y-6430000D03*
X14055000Y-6176000D03*
X14055000Y-5922000D03*
X14055000Y-5668000D03*
X14055000Y-5414000D03*
X14817000Y-5414000D03*
X14817000Y-5668000D03*
X14817000Y-5922000D03*
X14817000Y-6176000D03*
X14817000Y-6430000D03*
X14817000Y-6684000D03*
X14817000Y-6938000D03*
D10*
X14817000Y-7192000D03*
D14*
X15737000Y-7232000D03*
X15737000Y-6922000D03*
D15*
X14037000Y-8937000D03*
X13727000Y-8937000D03*
X14537000Y-8937000D03*
X14227000Y-8937000D03*
D17*
X13257000Y-8037000D03*
X13507000Y-8037000D03*
X13757000Y-8037000D03*
X14007000Y-8037000D03*
X14257000Y-8037000D03*
X14507000Y-8037000D03*
X14757000Y-8037000D03*
X15007000Y-8037000D03*
X15257000Y-8037000D03*
X15507000Y-8037000D03*
X15757000Y-8037000D03*
D16*
X16007000Y-8037000D03*
D20*
X15663000Y-4623000D03*
X15663000Y-4877000D03*
X15409000Y-4623000D03*
X15409000Y-4877000D03*
X15155000Y-4623000D03*
X15155000Y-4877000D03*
X14901000Y-4623000D03*
X14901000Y-4877000D03*
X14647000Y-4623000D03*
X14647000Y-4877000D03*
X14393000Y-4623000D03*
X14393000Y-4877000D03*
X14139000Y-4623000D03*
X14139000Y-4877000D03*
X13885000Y-4623000D03*
X13885000Y-4877000D03*
X13631000Y-4623000D03*
X13631000Y-4877000D03*
X13377000Y-4623000D03*
X13377000Y-4877000D03*
X13123000Y-4623000D03*
X13123000Y-4877000D03*
X12869000Y-4623000D03*
X12869000Y-4877000D03*
X12615000Y-4623000D03*
X12615000Y-4877000D03*
X12361000Y-4623000D03*
X12361000Y-4877000D03*
X12107000Y-4623000D03*
X12107000Y-4877000D03*
X11853000Y-4623000D03*
X11853000Y-4877000D03*
X11599000Y-4623000D03*
X11599000Y-4877000D03*
X11345000Y-4623000D03*
X11345000Y-4877000D03*
X11091000Y-4623000D03*
X11091000Y-4877000D03*
X10837000Y-4623000D03*
D21*
X10837000Y-4877000D03*
D22*
X15749500Y-7727000D03*
D23*
X16049500Y-7652000D03*
D22*
X9274500Y-7727000D03*
D23*
X9574500Y-7652000D03*
D22*
X12512000Y-7727000D03*
D23*
X12812000Y-7652000D03*
X12042000Y-5707637D03*
X13647871Y-6212871D03*
X12707000Y-5958189D03*
X9137000Y-7227000D03*
D24*
X15280700Y-6037121D02*
X15280700Y-5994695D01*
X15487000Y-5777000D02*
X15517000Y-5807000D01*
X15196853Y-5144426D02*
X15196853Y-5186853D01*
X15110995Y-5867416D02*
X15110995Y-5824989D01*
X15464547Y-5980553D02*
X15464547Y-5938126D01*
X15323126Y-6037121D02*
X15280700Y-6037121D01*
X15506973Y-6022979D02*
X15407979Y-6121974D01*
X15549400Y-6065405D02*
X15549400Y-6022979D01*
X15587000Y-5657000D02*
X15617000Y-5687000D01*
X15450405Y-6164400D02*
X15549400Y-6065405D01*
X15549400Y-6022979D02*
X15506973Y-6022979D01*
X15563542Y-6178542D02*
X15521116Y-6178542D01*
X15431436Y-5562858D02*
X15473863Y-5562858D01*
X15407979Y-6121974D02*
X15365552Y-6121974D01*
X15379695Y-5895700D02*
X15379695Y-5853274D01*
X15587000Y-6202000D02*
X15563542Y-6178542D01*
X15587000Y-5952000D02*
X15587000Y-6202000D01*
X15657000Y-5807000D02*
X15687000Y-5837000D01*
X15517000Y-5807000D02*
X15657000Y-5807000D01*
X15517000Y-5747000D02*
X15487000Y-5777000D01*
X15294842Y-5768421D02*
X15252416Y-5768421D01*
X15657000Y-5867000D02*
X15562000Y-5867000D01*
X15374867Y-5364867D02*
X15374867Y-5407293D01*
X15068568Y-5782563D02*
X15026142Y-5782563D01*
X15422121Y-5938126D02*
X15323126Y-6037121D01*
X15280700Y-5994695D02*
X15379695Y-5895700D01*
X15209990Y-5725995D02*
X15209990Y-5683568D01*
X15374867Y-5407293D02*
X15346583Y-5435578D01*
X15196853Y-5186853D02*
X15374867Y-5364867D01*
X15657000Y-5747000D02*
X15517000Y-5747000D01*
X15167563Y-5683568D02*
X15068568Y-5782563D01*
X15365552Y-6079547D02*
X15464547Y-5980553D01*
X15182512Y-5073915D02*
X15224938Y-5073915D01*
X15488004Y-5379010D02*
X15530431Y-5379010D01*
X15537000Y-5892000D02*
X15537000Y-5902000D01*
X15346583Y-5478004D02*
X15389009Y-5478004D01*
X15224938Y-5116341D02*
X15196853Y-5144426D01*
X15464547Y-5938126D02*
X15422121Y-5938126D01*
X15431436Y-5520431D02*
X15431436Y-5562858D01*
X15615284Y-5463863D02*
X15615284Y-5506289D01*
X15657000Y-5687000D02*
X15687000Y-5717000D01*
X15687000Y-5837000D02*
X15657000Y-5867000D01*
X15346583Y-5435578D02*
X15346583Y-5478004D01*
X15154426Y-5102000D02*
X15182512Y-5073915D01*
X15530431Y-5421436D02*
X15431436Y-5520431D01*
X15379695Y-5853274D02*
X15337268Y-5853273D01*
X15365552Y-6121974D02*
X15365552Y-6079547D01*
X15389009Y-5478004D02*
X15488004Y-5379010D01*
X15155000Y-4623000D02*
X15029362Y-4748638D01*
X15029362Y-4748638D02*
X15029362Y-5019362D01*
X15112000Y-5102000D02*
X15154426Y-5102000D01*
X15473863Y-5562858D02*
X15572858Y-5463863D01*
X15337268Y-5853273D02*
X15238274Y-5952268D01*
X15224938Y-5073915D02*
X15224938Y-5116341D01*
X15492831Y-6206826D02*
X15450405Y-6206826D01*
X15153421Y-5867416D02*
X15110995Y-5867416D01*
X15530431Y-5379010D02*
X15530431Y-5421436D01*
X15450405Y-6206826D02*
X15450405Y-6164400D01*
X15572858Y-5463863D02*
X15615284Y-5463863D01*
X15537000Y-5902000D02*
X15587000Y-5952000D01*
X15562000Y-5867000D02*
X15537000Y-5892000D01*
X15615284Y-5506289D02*
X15587000Y-5534574D01*
X15029362Y-5019362D02*
X15112000Y-5102000D01*
X15587000Y-5534574D02*
X15587000Y-5657000D01*
X15238274Y-5952268D02*
X15195847Y-5952268D01*
X15687000Y-5717000D02*
X15657000Y-5747000D01*
X15521116Y-6178542D02*
X15492831Y-6206826D01*
X14188432Y-5534568D02*
X14055000Y-5668000D01*
X15617000Y-5687000D02*
X15657000Y-5687000D01*
X15026142Y-5782563D02*
X15026142Y-5542147D01*
X15195847Y-5952268D02*
X15195847Y-5909842D01*
X15195847Y-5909842D02*
X15294842Y-5810847D01*
X15294842Y-5810847D02*
X15294842Y-5768421D01*
X15252416Y-5768421D02*
X15153421Y-5867416D01*
X15110995Y-5824989D02*
X15209990Y-5725995D01*
X15209990Y-5683568D02*
X15167563Y-5683568D01*
X15026142Y-5542147D02*
X15018562Y-5534568D01*
X15018562Y-5534568D02*
X14188432Y-5534568D01*
X12394717Y-5637464D02*
X12364717Y-5607464D01*
X12424717Y-5607464D02*
X12394717Y-5637464D01*
X12424717Y-5471970D02*
X12424717Y-5607464D01*
X12484717Y-5471970D02*
X12454717Y-5441970D01*
X12784717Y-5607464D02*
X12754717Y-5637464D01*
X12514717Y-5637464D02*
X12484717Y-5607464D01*
X12604717Y-5471970D02*
X12574717Y-5441970D01*
X12604717Y-5607464D02*
X12604717Y-5471970D01*
X12664717Y-5471970D02*
X12664717Y-5607464D01*
X13414717Y-5441970D02*
X13384717Y-5471970D01*
X12724717Y-5471970D02*
X12694717Y-5441970D01*
X13204717Y-5471970D02*
X13174717Y-5441970D01*
X12754717Y-5637464D02*
X12724717Y-5607464D01*
X12454717Y-5441970D02*
X12424717Y-5471970D01*
X12784717Y-5471970D02*
X12784717Y-5607464D01*
X12904717Y-5607464D02*
X12874717Y-5637464D01*
X13444717Y-5509717D02*
X13444717Y-5471970D01*
X12724717Y-5607464D02*
X12724717Y-5471970D01*
X12814717Y-5441970D02*
X12784717Y-5471970D01*
X12904717Y-5471970D02*
X12904717Y-5607464D01*
X11499283Y-5539717D02*
X11371000Y-5668000D01*
X12574717Y-5441970D02*
X12544717Y-5471970D01*
X12844717Y-5607464D02*
X12844717Y-5471970D01*
X12874717Y-5637464D02*
X12844717Y-5607464D01*
X12934717Y-5441970D02*
X12904717Y-5471970D01*
X12964717Y-5471970D02*
X12934717Y-5441970D01*
X12544717Y-5607464D02*
X12514717Y-5637464D01*
X12964717Y-5607464D02*
X12964717Y-5471970D01*
X13024717Y-5607464D02*
X12994717Y-5637464D01*
X13324717Y-5471970D02*
X13294717Y-5441970D01*
X13384717Y-5471970D02*
X13384717Y-5607464D01*
X12634717Y-5637464D02*
X12604717Y-5607464D01*
X13474717Y-5539717D02*
X13444717Y-5509717D01*
X13324717Y-5607464D02*
X13324717Y-5471970D01*
X13144717Y-5471970D02*
X13144717Y-5607464D01*
X12694717Y-5441970D02*
X12664717Y-5471970D01*
X13264717Y-5471970D02*
X13264717Y-5607464D01*
X12664717Y-5607464D02*
X12634717Y-5637464D01*
X13054717Y-5441970D02*
X13024717Y-5471970D01*
X13444717Y-5471970D02*
X13414717Y-5441970D01*
X12844717Y-5471970D02*
X12814717Y-5441970D01*
X13024717Y-5471970D02*
X13024717Y-5607464D01*
X13885000Y-4623000D02*
X13754735Y-4753265D01*
X13524283Y-5539717D02*
X13474717Y-5539717D01*
X12484717Y-5607464D02*
X12484717Y-5471970D01*
X13754735Y-5309265D02*
X13524283Y-5539717D01*
X13264717Y-5607464D02*
X13234717Y-5637464D01*
X13754735Y-4753265D02*
X13754735Y-5309265D01*
X13354717Y-5637464D02*
X13324717Y-5607464D01*
X12334717Y-5441970D02*
X12304717Y-5471970D01*
X13294717Y-5441970D02*
X13264717Y-5471970D01*
X13234717Y-5637464D02*
X13204717Y-5607464D01*
X12364717Y-5471970D02*
X12334717Y-5441970D01*
X13204717Y-5607464D02*
X13204717Y-5471970D01*
X12994717Y-5637464D02*
X12964717Y-5607464D01*
X13174717Y-5441970D02*
X13144717Y-5471970D01*
X12544717Y-5471970D02*
X12544717Y-5607464D01*
X13144717Y-5607464D02*
X13114717Y-5637464D01*
X13114717Y-5637464D02*
X13084717Y-5607464D01*
X13084717Y-5607464D02*
X13084717Y-5471970D01*
X12364717Y-5607464D02*
X12364717Y-5471970D01*
X13084717Y-5471970D02*
X13054717Y-5441970D01*
X13384717Y-5607464D02*
X13354717Y-5637464D01*
X12304717Y-5471970D02*
X12304717Y-5509717D01*
X12304717Y-5509717D02*
X12274717Y-5539717D01*
X12274717Y-5539717D02*
X11499283Y-5539717D01*
X11371000Y-5668000D02*
X10830000Y-5668000D01*
X9920683Y-5550326D02*
X11238674Y-5550326D01*
X13505004Y-5233996D02*
X13505004Y-4748996D01*
X9860683Y-5591586D02*
X9879423Y-5591586D01*
X7707674Y-5550326D02*
X9710326Y-5550326D01*
X13449725Y-5289275D02*
X13505004Y-5233996D01*
X11238674Y-5550326D02*
X11499725Y-5289275D01*
X9819423Y-5550326D02*
X9860683Y-5591586D01*
X9770326Y-5599423D02*
X9819423Y-5550326D01*
X13505004Y-4748996D02*
X13631000Y-4623000D01*
X9879423Y-5591586D02*
X9920683Y-5550326D01*
X9759423Y-5599423D02*
X9770326Y-5599423D01*
X11499725Y-5289275D02*
X13449725Y-5289275D01*
X9710326Y-5550326D02*
X9759423Y-5599423D01*
X7580000Y-5678000D02*
X7707674Y-5550326D01*
D25*
X15974500Y-7727000D02*
X15749500Y-7727000D01*
X16049500Y-7652000D02*
X15974500Y-7727000D01*
X9499500Y-7727000D02*
X9274500Y-7727000D01*
X9574500Y-7652000D02*
X9499500Y-7727000D01*
X12737000Y-7727000D02*
X12512000Y-7727000D01*
X12812000Y-7652000D02*
X12737000Y-7727000D01*
D24*
X10830000Y-5922000D02*
X10955721Y-5796279D01*
X10955721Y-5796279D02*
X11867721Y-5796279D01*
X11867721Y-5796279D02*
X11892000Y-5772000D01*
X12012000Y-5737637D02*
X12042000Y-5707637D01*
X11892000Y-5772000D02*
X11892000Y-5737637D01*
X11892000Y-5737637D02*
X11922000Y-5707637D01*
X11922000Y-5707637D02*
X11952000Y-5737637D01*
X12012000Y-5866363D02*
X12012000Y-5737637D01*
X11952000Y-5737637D02*
X11952000Y-5866363D01*
X11952000Y-5866363D02*
X11982000Y-5896363D01*
X11982000Y-5896363D02*
X12012000Y-5866363D01*
X9572000Y-5993046D02*
X9572000Y-6022000D01*
X9512000Y-5993046D02*
X9542000Y-5963046D01*
X9512000Y-6110954D02*
X9512000Y-5993046D01*
X9482000Y-6140954D02*
X9512000Y-6110954D01*
X7580000Y-6186000D02*
X7708434Y-6057566D01*
X9452000Y-6110954D02*
X9482000Y-6140954D01*
X10706000Y-6052000D02*
X10830000Y-6176000D01*
X9422000Y-5963046D02*
X9452000Y-5993046D01*
X9392000Y-5993046D02*
X9422000Y-5963046D01*
X9602000Y-6052000D02*
X10706000Y-6052000D01*
X9452000Y-5993046D02*
X9452000Y-6110954D01*
X9542000Y-5963046D02*
X9572000Y-5993046D01*
X9392000Y-6022000D02*
X9392000Y-5993046D01*
X9356434Y-6057566D02*
X9392000Y-6022000D01*
X7708434Y-6057566D02*
X9356434Y-6057566D01*
X9572000Y-6022000D02*
X9602000Y-6052000D01*
X10192000Y-6390401D02*
X10222000Y-6360401D01*
X10162000Y-6360401D02*
X10192000Y-6390401D01*
X10222000Y-6360401D02*
X10222000Y-6332000D01*
X10162000Y-6243599D02*
X10162000Y-6360401D01*
X10132000Y-6213599D02*
X10162000Y-6243599D01*
X10102000Y-6243599D02*
X10132000Y-6213599D01*
X10102000Y-6360401D02*
X10102000Y-6243599D01*
X10042000Y-6360401D02*
X10072000Y-6390401D01*
X10042000Y-6332000D02*
X10042000Y-6360401D01*
X10072000Y-6390401D02*
X10102000Y-6360401D01*
X10021081Y-6311081D02*
X10042000Y-6332000D01*
X7708919Y-6311081D02*
X10021081Y-6311081D01*
X7580000Y-6440000D02*
X7708919Y-6311081D01*
X10222000Y-6332000D02*
X10252000Y-6302000D01*
X10252000Y-6302000D02*
X10702000Y-6302000D01*
X10702000Y-6302000D02*
X10830000Y-6430000D01*
D25*
X10830000Y-7192000D02*
X10956954Y-7065046D01*
X10956954Y-7065046D02*
X13928046Y-7065046D01*
X13928046Y-7065046D02*
X14055000Y-7192000D01*
X16112000Y-7232000D02*
X16297000Y-7417000D01*
X16297000Y-7417000D02*
X16297000Y-9017000D01*
X16297000Y-9017000D02*
X15662000Y-9652000D01*
X15662000Y-9652000D02*
X15307000Y-9652000D01*
X15737000Y-7232000D02*
X15737000Y-7252000D01*
X15862000Y-7377000D02*
X16172147Y-7377000D01*
X16172147Y-7377000D02*
X16237000Y-7441853D01*
X16237000Y-8992147D02*
X16052147Y-9177000D01*
X15737000Y-7252000D02*
X15862000Y-7377000D01*
X16237000Y-7441853D02*
X16237000Y-8992147D01*
X16052147Y-9177000D02*
X15967000Y-9177000D01*
X15967000Y-9177000D02*
X15727000Y-8937000D01*
X12512000Y-7232000D02*
X12657000Y-7377000D01*
X12657000Y-7377000D02*
X12947147Y-7377000D01*
X13027000Y-9237147D02*
X12987147Y-9277000D01*
X12947147Y-7377000D02*
X13027000Y-7456853D01*
X13027000Y-7456853D02*
X13027000Y-9237147D01*
X12987147Y-9277000D02*
X12812000Y-9277000D01*
X12812000Y-9277000D02*
X12490000Y-8955000D01*
X12490000Y-8955000D02*
X12490000Y-8937000D01*
X9662000Y-7232000D02*
X9837000Y-7407000D01*
X9837000Y-7407000D02*
X9837000Y-9312000D01*
X9837000Y-9312000D02*
X9497000Y-9652000D01*
X9287000Y-7232000D02*
X9432000Y-7377000D01*
X9777000Y-9287147D02*
X9737147Y-9327000D01*
X9432000Y-7377000D02*
X9437000Y-7377000D01*
X9437000Y-7377000D02*
X9777000Y-7717000D01*
X9777000Y-7717000D02*
X9777000Y-9287147D01*
X9737147Y-9327000D02*
X9642000Y-9327000D01*
X9642000Y-9327000D02*
X9252000Y-8937000D01*
D24*
X13647871Y-6212871D02*
X13622000Y-6238742D01*
D25*
X9282000Y-7227000D02*
X9287000Y-7232000D01*
X9137000Y-7227000D02*
X9282000Y-7227000D01*
X12887000Y-7232000D02*
X13087000Y-7432000D01*
X13087000Y-7432000D02*
X13087000Y-9262000D01*
X13087000Y-9262000D02*
X12697000Y-9652000D01*
X7580000Y-7202000D02*
X7705000Y-7077000D01*
X7705000Y-7077000D02*
X10715000Y-7077000D01*
X10715000Y-7077000D02*
X10830000Y-7192000D01*
D24*
X13502000Y-6238742D02*
X13502000Y-6272000D01*
X13562000Y-6365258D02*
X13562000Y-6238742D01*
X13592000Y-6395258D02*
X13562000Y-6365258D01*
X13622000Y-6238742D02*
X13622000Y-6365258D01*
X13532000Y-6208742D02*
X13502000Y-6238742D01*
X13622000Y-6365258D02*
X13592000Y-6395258D01*
X13652000Y-6208742D02*
X13647871Y-6212871D01*
X13682000Y-6238742D02*
X13652000Y-6208742D01*
X13712000Y-6302000D02*
X13682000Y-6272000D01*
X13927000Y-6302000D02*
X13712000Y-6302000D01*
X13562000Y-6238742D02*
X13532000Y-6208742D01*
X13682000Y-6272000D02*
X13682000Y-6238742D01*
X14055000Y-6430000D02*
X13927000Y-6302000D01*
X13502000Y-6272000D02*
X13472000Y-6302000D01*
X13472000Y-6302000D02*
X10958000Y-6302000D01*
X10958000Y-6302000D02*
X10830000Y-6430000D01*
X12737000Y-6115811D02*
X12767000Y-6145811D01*
X12707000Y-5958189D02*
X12737000Y-5988189D01*
X12677000Y-5988189D02*
X12707000Y-5958189D01*
X12767000Y-6145811D02*
X12797000Y-6115811D01*
X10830000Y-6176000D02*
X10954000Y-6052000D01*
X12797000Y-6115811D02*
X12797000Y-6082000D01*
X12737000Y-5988189D02*
X12737000Y-6115811D01*
X12617000Y-6115811D02*
X12647000Y-6145811D01*
X12677000Y-6115811D02*
X12677000Y-5988189D01*
X12797000Y-6082000D02*
X12827000Y-6052000D01*
X12647000Y-6145811D02*
X12677000Y-6115811D01*
X12617000Y-6082000D02*
X12617000Y-6115811D01*
X12587000Y-6052000D02*
X12617000Y-6082000D01*
X10954000Y-6052000D02*
X12587000Y-6052000D01*
X12827000Y-6052000D02*
X13931000Y-6052000D01*
X13931000Y-6052000D02*
X14055000Y-6176000D01*
X12102000Y-5802000D02*
X13935000Y-5802000D01*
X12042000Y-5707637D02*
X12072000Y-5737637D01*
X12072000Y-5737637D02*
X12072000Y-5772000D01*
X12072000Y-5772000D02*
X12102000Y-5802000D01*
X13935000Y-5802000D02*
X14055000Y-5922000D01*
X9047000Y-5860954D02*
X9047000Y-5832000D01*
X8987000Y-5743046D02*
X8987000Y-5860954D01*
X8927000Y-5743046D02*
X8957000Y-5713046D01*
X8927000Y-5860954D02*
X8927000Y-5743046D01*
X8957000Y-5713046D02*
X8987000Y-5743046D01*
X8987000Y-5860954D02*
X9017000Y-5890954D01*
X8897000Y-5890954D02*
X8927000Y-5860954D01*
X8867000Y-5860954D02*
X8897000Y-5890954D01*
X8867000Y-5832000D02*
X8867000Y-5860954D01*
X8837000Y-5802000D02*
X8867000Y-5832000D01*
X7716000Y-5802000D02*
X8837000Y-5802000D01*
X9017000Y-5890954D02*
X9047000Y-5860954D01*
X7582000Y-5936000D02*
X7716000Y-5802000D01*
X9047000Y-5832000D02*
X9077000Y-5802000D01*
X9077000Y-5802000D02*
X10708000Y-5802000D01*
X10708000Y-5802000D02*
X10832000Y-5926000D01*
D25*
X12512000Y-6922000D02*
X12020000Y-6430000D01*
X12020000Y-6430000D02*
X11592000Y-6430000D01*
X12887000Y-6922000D02*
X12512000Y-6922000D01*
X10830000Y-6938000D02*
X10830000Y-7192000D01*
X12770000Y-8037000D02*
X12770000Y-8907000D01*
X12770000Y-8907000D02*
X12800000Y-8937000D01*
X12270000Y-8037000D02*
X12270000Y-8907000D01*
X12270000Y-8907000D02*
X12300000Y-8937000D01*
X11770000Y-8037000D02*
X11770000Y-8907000D01*
X11770000Y-8907000D02*
X11800000Y-8937000D01*
X11270000Y-8037000D02*
X11270000Y-8907000D01*
X11270000Y-8907000D02*
X11300000Y-8937000D01*
X10770000Y-8037000D02*
X10770000Y-8907000D01*
X10770000Y-8907000D02*
X10800000Y-8937000D01*
X10270000Y-8037000D02*
X10270000Y-8907000D01*
X10270000Y-8907000D02*
X10300000Y-8937000D01*
X7580000Y-6948000D02*
X7580000Y-7202000D01*
X9287000Y-6922000D02*
X8805000Y-6440000D01*
X8805000Y-6440000D02*
X8342000Y-6440000D01*
X9662000Y-6922000D02*
X9287000Y-6922000D01*
X15737000Y-6922000D02*
X15245000Y-6430000D01*
X15245000Y-6430000D02*
X14817000Y-6430000D01*
X16112000Y-6922000D02*
X15737000Y-6922000D01*
X14055000Y-6938000D02*
X14055000Y-7192000D01*
X11037000Y-9102000D02*
X11212000Y-9102000D01*
X11212000Y-9102000D02*
X11437000Y-9102000D01*
X11197000Y-9652000D02*
X11197000Y-9117000D01*
X11197000Y-9117000D02*
X11212000Y-9102000D01*
X13762000Y-9102000D02*
X13812000Y-9102000D01*
X13812000Y-9102000D02*
X14187000Y-9102000D01*
X13807000Y-9652000D02*
X13807000Y-9107000D01*
X13807000Y-9107000D02*
X13812000Y-9102000D01*
X15227000Y-8937000D02*
X15227000Y-9067000D01*
X15262000Y-9102000D02*
X15687000Y-9102000D01*
X15227000Y-9067000D02*
X15262000Y-9102000D01*
X15687000Y-9102000D02*
X15727000Y-9062000D01*
X15727000Y-9062000D02*
X15727000Y-8937000D01*
X14727000Y-8937000D02*
X14727000Y-9067000D01*
X15227000Y-9062000D02*
X15227000Y-8937000D01*
X14727000Y-9067000D02*
X14762000Y-9102000D01*
X14762000Y-9102000D02*
X15187000Y-9102000D01*
X15187000Y-9102000D02*
X15227000Y-9062000D01*
X13727000Y-8937000D02*
X13727000Y-9067000D01*
X13727000Y-9067000D02*
X13762000Y-9102000D01*
X14187000Y-9102000D02*
X14227000Y-9062000D01*
X14227000Y-9062000D02*
X14227000Y-8937000D01*
X13227000Y-8937000D02*
X13227000Y-9067000D01*
X13227000Y-9067000D02*
X13262000Y-9102000D01*
X13262000Y-9102000D02*
X13687000Y-9102000D01*
X13687000Y-9102000D02*
X13727000Y-9062000D01*
X13727000Y-9062000D02*
X13727000Y-8937000D01*
X14227000Y-8937000D02*
X14227000Y-9067000D01*
X14227000Y-9067000D02*
X14262000Y-9102000D01*
X14262000Y-9102000D02*
X14687000Y-9102000D01*
X14687000Y-9102000D02*
X14727000Y-9062000D01*
X14727000Y-9062000D02*
X14727000Y-8937000D01*
X11990000Y-8937000D02*
X11990000Y-9055000D01*
X11990000Y-9055000D02*
X12037000Y-9102000D01*
X12437000Y-9102000D02*
X12490000Y-9049000D01*
X12037000Y-9102000D02*
X12437000Y-9102000D01*
X12490000Y-9049000D02*
X12490000Y-8937000D01*
X11490000Y-8937000D02*
X11490000Y-9055000D01*
X11490000Y-9055000D02*
X11537000Y-9102000D01*
X11537000Y-9102000D02*
X11937000Y-9102000D01*
X11937000Y-9102000D02*
X11990000Y-9049000D01*
X11990000Y-9049000D02*
X11990000Y-8937000D01*
X10990000Y-8937000D02*
X10990000Y-9055000D01*
X10990000Y-9055000D02*
X11037000Y-9102000D01*
X11437000Y-9102000D02*
X11490000Y-9049000D01*
X11490000Y-9049000D02*
X11490000Y-8937000D01*
X10490000Y-8937000D02*
X10490000Y-9055000D01*
X10490000Y-9055000D02*
X10537000Y-9102000D01*
X10537000Y-9102000D02*
X10937000Y-9102000D01*
X10937000Y-9102000D02*
X10990000Y-9049000D01*
X10990000Y-9049000D02*
X10990000Y-8937000D01*
X9990000Y-8937000D02*
X9990000Y-9055000D01*
X10490000Y-9049000D02*
X10490000Y-8937000D01*
X9990000Y-9055000D02*
X10037000Y-9102000D01*
X10037000Y-9102000D02*
X10437000Y-9102000D01*
X10437000Y-9102000D02*
X10490000Y-9049000D01*
X7787000Y-9102000D02*
X7987000Y-9102000D01*
X7997000Y-9652000D02*
X7997000Y-9112000D01*
X7987000Y-9102000D02*
X8212000Y-9102000D01*
X7997000Y-9112000D02*
X7987000Y-9102000D01*
X8752000Y-8937000D02*
X8752000Y-9067000D01*
X8752000Y-9067000D02*
X8787000Y-9102000D01*
X8787000Y-9102000D02*
X9212000Y-9102000D01*
X9212000Y-9102000D02*
X9252000Y-9062000D01*
X9252000Y-9062000D02*
X9252000Y-8937000D01*
X8252000Y-8937000D02*
X8252000Y-9067000D01*
X8252000Y-9067000D02*
X8287000Y-9102000D01*
X8287000Y-9102000D02*
X8712000Y-9102000D01*
X8712000Y-9102000D02*
X8752000Y-9062000D01*
X8752000Y-9062000D02*
X8752000Y-8937000D01*
X7752000Y-8937000D02*
X7752000Y-9067000D01*
X7752000Y-9067000D02*
X7787000Y-9102000D01*
X8252000Y-9062000D02*
X8252000Y-8937000D01*
X8212000Y-9102000D02*
X8252000Y-9062000D01*
X7252000Y-8937000D02*
X7252000Y-9067000D01*
X7252000Y-9067000D02*
X7287000Y-9102000D01*
X7287000Y-9102000D02*
X7712000Y-9102000D01*
X7712000Y-9102000D02*
X7752000Y-9062000D01*
X7752000Y-9062000D02*
X7752000Y-8937000D01*
X6752000Y-8937000D02*
X6752000Y-9067000D01*
X6752000Y-9067000D02*
X6787000Y-9102000D01*
X6787000Y-9102000D02*
X7212000Y-9102000D01*
X7252000Y-9062000D02*
X7252000Y-8937000D01*
X7212000Y-9102000D02*
X7252000Y-9062000D01*
X14307000Y-9652000D02*
X14482000Y-9477000D01*
X14482000Y-9477000D02*
X15132000Y-9477000D01*
X15132000Y-9477000D02*
X15307000Y-9652000D01*
X11697000Y-9652000D02*
X11872000Y-9477000D01*
X11872000Y-9477000D02*
X12522000Y-9477000D01*
X12522000Y-9477000D02*
X12697000Y-9652000D01*
X9497000Y-9652000D02*
X9322000Y-9477000D01*
X9322000Y-9477000D02*
X8672000Y-9477000D01*
X8672000Y-9477000D02*
X8497000Y-9652000D01*
X8997000Y-9652000D02*
X9152000Y-9807000D01*
X9152000Y-9807000D02*
X10077000Y-9807000D01*
X10077000Y-9807000D02*
X10227000Y-9957000D01*
X10227000Y-9957000D02*
X10477000Y-9957000D01*
X10477000Y-9957000D02*
X10637000Y-9797000D01*
X10637000Y-9797000D02*
X11052000Y-9797000D01*
X11052000Y-9797000D02*
X11197000Y-9652000D01*
X6987000Y-11277000D02*
X6687000Y-11577000D01*
X6687000Y-11577000D02*
X6687000Y-11677000D01*
X6687000Y-11677000D02*
X6987000Y-11977000D01*
X6987000Y-10577000D02*
X6687000Y-10877000D01*
X6687000Y-10877000D02*
X6687000Y-10977000D01*
X6687000Y-10977000D02*
X6987000Y-11277000D01*
X6987000Y-10577000D02*
X13232000Y-10577000D01*
X13232000Y-10577000D02*
X15307000Y-12652000D01*
X6987000Y-10927000D02*
X12082000Y-10927000D01*
X12082000Y-10927000D02*
X13807000Y-12652000D01*
X6987000Y-11277000D02*
X11322000Y-11277000D01*
X11322000Y-11277000D02*
X12697000Y-12652000D01*
X6987000Y-11627000D02*
X10172000Y-11627000D01*
X10172000Y-11627000D02*
X11197000Y-12652000D01*
X6987000Y-11977000D02*
X8822000Y-11977000D01*
X8822000Y-11977000D02*
X9497000Y-12652000D01*
X6987000Y-12327000D02*
X7672000Y-12327000D01*
X7672000Y-12327000D02*
X7997000Y-12652000D01*
X12197000Y-9652000D02*
X12347000Y-9802000D01*
X12347000Y-9802000D02*
X13657000Y-9802000D01*
X13657000Y-9802000D02*
X13807000Y-9652000D01*
X11197000Y-9652000D02*
X11347000Y-9802000D01*
X11347000Y-9802000D02*
X12047000Y-9802000D01*
X12047000Y-9802000D02*
X12197000Y-9652000D01*
X14307000Y-12652000D02*
X14807000Y-12652000D01*
X11697000Y-12652000D02*
X12197000Y-12652000D01*
X13807000Y-9652000D02*
X13957000Y-9802000D01*
X13957000Y-9802000D02*
X14637000Y-9802000D01*
X14637000Y-9802000D02*
X14807000Y-9632000D01*
X13257000Y-8037000D02*
X13257000Y-8907000D01*
X13257000Y-8907000D02*
X13227000Y-8937000D01*
X13507000Y-8037000D02*
X13507000Y-8907000D01*
X13507000Y-8907000D02*
X13537000Y-8937000D01*
X13757000Y-8037000D02*
X13757000Y-8907000D01*
X13757000Y-8907000D02*
X13727000Y-8937000D01*
X14007000Y-8037000D02*
X14007000Y-8907000D01*
X14007000Y-8907000D02*
X14037000Y-8937000D01*
X14257000Y-8037000D02*
X14257000Y-8907000D01*
X14257000Y-8907000D02*
X14227000Y-8937000D01*
X14507000Y-8037000D02*
X14507000Y-8907000D01*
X14507000Y-8907000D02*
X14537000Y-8937000D01*
X14757000Y-8037000D02*
X14757000Y-8907000D01*
X14757000Y-8907000D02*
X14727000Y-8937000D01*
X15007000Y-8037000D02*
X15007000Y-8907000D01*
X15007000Y-8907000D02*
X15037000Y-8937000D01*
X15257000Y-8037000D02*
X15257000Y-8907000D01*
X15257000Y-8907000D02*
X15227000Y-8937000D01*
X15507000Y-8037000D02*
X15507000Y-8907000D01*
X15507000Y-8907000D02*
X15537000Y-8937000D01*
X15757000Y-8037000D02*
X15757000Y-8907000D01*
X15757000Y-8907000D02*
X15727000Y-8937000D01*
X16007000Y-8037000D02*
X16007000Y-8907000D01*
X16007000Y-8907000D02*
X16037000Y-8937000D01*
X12020000Y-8037000D02*
X12020000Y-8906912D01*
X12020000Y-8906912D02*
X11990000Y-8936912D01*
X11020000Y-8037000D02*
X11020000Y-8906912D01*
X12520000Y-8906912D02*
X12490000Y-8936912D01*
X10020000Y-8037000D02*
X10020000Y-8906912D01*
X11520000Y-8906912D02*
X11490000Y-8936912D01*
X11520000Y-8037000D02*
X11520000Y-8906912D01*
X10020000Y-8906912D02*
X9990000Y-8936912D01*
X10520000Y-8906912D02*
X10490000Y-8936912D01*
X12520000Y-8037000D02*
X12520000Y-8906912D01*
X11020000Y-8906912D02*
X10990000Y-8936912D01*
X10520000Y-8037000D02*
X10520000Y-8906912D01*
X8997000Y-12652000D02*
X8497000Y-12652000D01*
X7997000Y-9652000D02*
X8147000Y-9802000D01*
X8147000Y-9802000D02*
X8847000Y-9802000D01*
X8847000Y-9802000D02*
X8997000Y-9652000D01*
X6782000Y-8037088D02*
X6782000Y-8907000D01*
X6782000Y-8907000D02*
X6752000Y-8937000D01*
X7282000Y-8037088D02*
X7282000Y-8907000D01*
X7282000Y-8907000D02*
X7252000Y-8937000D01*
X7782000Y-8037088D02*
X7782000Y-8907000D01*
X7782000Y-8907000D02*
X7752000Y-8937000D01*
X8282000Y-8037088D02*
X8282000Y-8907000D01*
X8282000Y-8907000D02*
X8252000Y-8937000D01*
X8782000Y-8037088D02*
X8782000Y-8907000D01*
X8782000Y-8907000D02*
X8752000Y-8937000D01*
X9282000Y-8037088D02*
X9282000Y-8907000D01*
X9282000Y-8907000D02*
X9252000Y-8937000D01*
X7032000Y-8037088D02*
X7032000Y-8907000D01*
X7032000Y-8907000D02*
X7062000Y-8937000D01*
X7532000Y-8037088D02*
X7532000Y-8907000D01*
X7532000Y-8907000D02*
X7562000Y-8937000D01*
X8032000Y-8037088D02*
X8032000Y-8907000D01*
X8032000Y-8907000D02*
X8062000Y-8937000D01*
X8532000Y-8037088D02*
X8532000Y-8907000D01*
X8532000Y-8907000D02*
X8562000Y-8937000D01*
X9032000Y-8037088D02*
X9032000Y-8907000D01*
X9032000Y-8907000D02*
X9062000Y-8937000D01*
X9532000Y-8037088D02*
X9532000Y-8907000D01*
X9532000Y-8907000D02*
X9562000Y-8937000D01*
M02*
