G04 #@! TF.GenerationSoftware,KiCad,Pcbnew,(6.0.8)*
G04 #@! TF.CreationDate,2022-10-16T23:30:32+02:00*
G04 #@! TF.ProjectId,RPiWattMeterHatv3,52506957-6174-4744-9d65-746572486174,rev?*
G04 #@! TF.SameCoordinates,Original*
G04 #@! TF.FileFunction,Paste,Top*
G04 #@! TF.FilePolarity,Positive*
%FSLAX45Y45*%
G04 Gerber Fmt 4.5, Leading zero omitted, Abs format (unit mm)*
G04 Created by KiCad (PCBNEW (6.0.8)) date 2022-10-16 23:30:32*
%MOMM*%
%LPD*%
G01*
G04 APERTURE LIST*
G04 Aperture macros list*
%AMRoundRect*
0 Rectangle with rounded corners*
0 $1 Rounding radius*
0 $2 $3 $4 $5 $6 $7 $8 $9 X,Y pos of 4 corners*
0 Add a 4 corners polygon primitive as box body*
4,1,4,$2,$3,$4,$5,$6,$7,$8,$9,$2,$3,0*
0 Add four circle primitives for the rounded corners*
1,1,$1+$1,$2,$3*
1,1,$1+$1,$4,$5*
1,1,$1+$1,$6,$7*
1,1,$1+$1,$8,$9*
0 Add four rect primitives between the rounded corners*
20,1,$1+$1,$2,$3,$4,$5,0*
20,1,$1+$1,$4,$5,$6,$7,0*
20,1,$1+$1,$6,$7,$8,$9,0*
20,1,$1+$1,$8,$9,$2,$3,0*%
G04 Aperture macros list end*
%ADD10RoundRect,0.250000X0.625000X-0.400000X0.625000X0.400000X-0.625000X0.400000X-0.625000X-0.400000X0*%
%ADD11RoundRect,0.250000X0.400000X0.625000X-0.400000X0.625000X-0.400000X-0.625000X0.400000X-0.625000X0*%
G04 APERTURE END LIST*
D10*
X12512000Y-6922000D03*
X12512000Y-7232000D03*
X12887000Y-6922000D03*
X12887000Y-7232000D03*
D11*
X9990000Y-8937000D03*
X10300000Y-8937000D03*
X10490000Y-8937000D03*
X10800000Y-8937000D03*
X10990000Y-8937000D03*
X11300000Y-8937000D03*
X11490000Y-8937000D03*
X11800000Y-8937000D03*
X11990000Y-8937000D03*
X12300000Y-8937000D03*
X12490000Y-8937000D03*
X12800000Y-8937000D03*
X9562000Y-8937000D03*
X9252000Y-8937000D03*
X8562000Y-8937000D03*
X8252000Y-8937000D03*
X7062000Y-8937000D03*
X6752000Y-8937000D03*
D10*
X9287000Y-7232000D03*
X9287000Y-6922000D03*
X9662000Y-7232000D03*
X9662000Y-6922000D03*
D11*
X9062000Y-8937000D03*
X8752000Y-8937000D03*
X7562000Y-8937000D03*
X7252000Y-8937000D03*
X8062000Y-8937000D03*
X7752000Y-8937000D03*
X16037000Y-8937000D03*
X15727000Y-8937000D03*
X15537000Y-8937000D03*
X15227000Y-8937000D03*
X13537000Y-8937000D03*
X13227000Y-8937000D03*
D10*
X16112000Y-6922000D03*
X16112000Y-7232000D03*
D11*
X15037000Y-8937000D03*
X14727000Y-8937000D03*
D10*
X15737000Y-7232000D03*
X15737000Y-6922000D03*
D11*
X14037000Y-8937000D03*
X13727000Y-8937000D03*
X14537000Y-8937000D03*
X14227000Y-8937000D03*
M02*
