G04 #@! TF.GenerationSoftware,KiCad,Pcbnew,(6.0.8)*
G04 #@! TF.CreationDate,2022-10-16T23:30:32+02:00*
G04 #@! TF.ProjectId,RPiWattMeterHatv3,52506957-6174-4744-9d65-746572486174,rev?*
G04 #@! TF.SameCoordinates,Original*
G04 #@! TF.FileFunction,Paste,Bot*
G04 #@! TF.FilePolarity,Positive*
%FSLAX45Y45*%
G04 Gerber Fmt 4.5, Leading zero omitted, Abs format (unit mm)*
G04 Created by KiCad (PCBNEW (6.0.8)) date 2022-10-16 23:30:32*
%MOMM*%
%LPD*%
G01*
G04 APERTURE LIST*
G04 Aperture macros list*
%AMRoundRect*
0 Rectangle with rounded corners*
0 $1 Rounding radius*
0 $2 $3 $4 $5 $6 $7 $8 $9 X,Y pos of 4 corners*
0 Add a 4 corners polygon primitive as box body*
4,1,4,$2,$3,$4,$5,$6,$7,$8,$9,$2,$3,0*
0 Add four circle primitives for the rounded corners*
1,1,$1+$1,$2,$3*
1,1,$1+$1,$4,$5*
1,1,$1+$1,$6,$7*
1,1,$1+$1,$8,$9*
0 Add four rect primitives between the rounded corners*
20,1,$1+$1,$2,$3,$4,$5,0*
20,1,$1+$1,$4,$5,$6,$7,0*
20,1,$1+$1,$6,$7,$8,$9,0*
20,1,$1+$1,$8,$9,$2,$3,0*%
G04 Aperture macros list end*
%ADD10RoundRect,0.250000X-0.425000X0.537500X-0.425000X-0.537500X0.425000X-0.537500X0.425000X0.537500X0*%
%ADD11RoundRect,0.250000X0.412500X0.650000X-0.412500X0.650000X-0.412500X-0.650000X0.412500X-0.650000X0*%
%ADD12RoundRect,0.250000X0.537500X0.425000X-0.537500X0.425000X-0.537500X-0.425000X0.537500X-0.425000X0*%
%ADD13RoundRect,0.250000X-0.650000X0.412500X-0.650000X-0.412500X0.650000X-0.412500X0.650000X0.412500X0*%
%ADD14RoundRect,0.250000X0.650000X-0.412500X0.650000X0.412500X-0.650000X0.412500X-0.650000X-0.412500X0*%
%ADD15RoundRect,0.150000X0.512500X0.150000X-0.512500X0.150000X-0.512500X-0.150000X0.512500X-0.150000X0*%
%ADD16RoundRect,0.250000X0.400000X0.625000X-0.400000X0.625000X-0.400000X-0.625000X0.400000X-0.625000X0*%
%ADD17RoundRect,0.250000X-0.400000X-0.625000X0.400000X-0.625000X0.400000X0.625000X-0.400000X0.625000X0*%
G04 APERTURE END LIST*
D10*
X8877000Y-5273250D03*
X8877000Y-5560750D03*
D11*
X7243250Y-6827000D03*
X6930750Y-6827000D03*
D12*
X13705750Y-7192000D03*
X13418250Y-7192000D03*
X10480750Y-7192000D03*
X10193250Y-7192000D03*
X7230750Y-7202000D03*
X6943250Y-7202000D03*
D11*
X10180750Y-6827000D03*
X10493250Y-6827000D03*
D13*
X10270000Y-8330750D03*
X10270000Y-8643250D03*
X10770000Y-8643250D03*
X10770000Y-8330750D03*
X11270000Y-8643250D03*
X11270000Y-8330750D03*
D14*
X11770000Y-8330750D03*
X11770000Y-8643250D03*
X12270000Y-8330750D03*
X12270000Y-8643250D03*
X12770000Y-8330750D03*
X12770000Y-8643250D03*
X9532000Y-8640750D03*
X9532000Y-8328250D03*
D13*
X7031635Y-8328250D03*
X7031635Y-8640750D03*
X7532000Y-8328250D03*
X7532000Y-8640750D03*
D14*
X9032000Y-8640750D03*
X9032000Y-8328250D03*
D13*
X8032000Y-8328250D03*
X8032000Y-8640750D03*
D14*
X8532000Y-8640750D03*
X8532000Y-8328250D03*
D15*
X9243250Y-5262000D03*
X9243250Y-5452000D03*
X9470750Y-5452000D03*
X9470750Y-5357000D03*
X9470750Y-5262000D03*
D11*
X13718250Y-6827000D03*
X13405750Y-6827000D03*
D13*
X13507000Y-8643250D03*
X13507000Y-8330750D03*
D14*
X15507000Y-8330750D03*
X15507000Y-8643250D03*
D16*
X10132000Y-5527000D03*
X10442000Y-5527000D03*
D14*
X15007000Y-8330750D03*
X15007000Y-8643250D03*
D13*
X9867000Y-5588250D03*
X9867000Y-5275750D03*
X14507000Y-8643250D03*
X14507000Y-8330750D03*
D17*
X10442000Y-5277000D03*
X10132000Y-5277000D03*
D13*
X14007000Y-8643250D03*
X14007000Y-8330750D03*
D14*
X16007000Y-8330750D03*
X16007000Y-8643250D03*
M02*
