G04 #@! TF.GenerationSoftware,KiCad,Pcbnew,(6.0.8)*
G04 #@! TF.CreationDate,2022-10-16T23:30:33+02:00*
G04 #@! TF.ProjectId,RPiWattMeterHatv3,52506957-6174-4744-9d65-746572486174,rev?*
G04 #@! TF.SameCoordinates,Original*
G04 #@! TF.FileFunction,Legend,Bot*
G04 #@! TF.FilePolarity,Positive*
%FSLAX45Y45*%
G04 Gerber Fmt 4.5, Leading zero omitted, Abs format (unit mm)*
G04 Created by KiCad (PCBNEW (6.0.8)) date 2022-10-16 23:30:33*
%MOMM*%
%LPD*%
G01*
G04 APERTURE LIST*
G04 Aperture macros list*
%AMRoundRect*
0 Rectangle with rounded corners*
0 $1 Rounding radius*
0 $2 $3 $4 $5 $6 $7 $8 $9 X,Y pos of 4 corners*
0 Add a 4 corners polygon primitive as box body*
4,1,4,$2,$3,$4,$5,$6,$7,$8,$9,$2,$3,0*
0 Add four circle primitives for the rounded corners*
1,1,$1+$1,$2,$3*
1,1,$1+$1,$4,$5*
1,1,$1+$1,$6,$7*
1,1,$1+$1,$8,$9*
0 Add four rect primitives between the rounded corners*
20,1,$1+$1,$2,$3,$4,$5,0*
20,1,$1+$1,$4,$5,$6,$7,0*
20,1,$1+$1,$6,$7,$8,$9,0*
20,1,$1+$1,$8,$9,$2,$3,0*%
G04 Aperture macros list end*
%ADD10C,0.150000*%
%ADD11C,0.120000*%
%ADD12RoundRect,0.250000X-0.425000X0.537500X-0.425000X-0.537500X0.425000X-0.537500X0.425000X0.537500X0*%
%ADD13RoundRect,0.250000X0.412500X0.650000X-0.412500X0.650000X-0.412500X-0.650000X0.412500X-0.650000X0*%
%ADD14RoundRect,0.250000X0.537500X0.425000X-0.537500X0.425000X-0.537500X-0.425000X0.537500X-0.425000X0*%
%ADD15R,1.600000X1.600000*%
%ADD16O,1.600000X1.600000*%
%ADD17C,1.750000*%
%ADD18RoundRect,0.437500X0.437500X-0.437500X0.437500X0.437500X-0.437500X0.437500X-0.437500X-0.437500X0*%
%ADD19RoundRect,0.437500X0.437500X0.437500X-0.437500X0.437500X-0.437500X-0.437500X0.437500X-0.437500X0*%
%ADD20C,2.000000*%
%ADD21RoundRect,0.250000X-0.650000X0.412500X-0.650000X-0.412500X0.650000X-0.412500X0.650000X0.412500X0*%
%ADD22RoundRect,0.250000X0.650000X-0.412500X0.650000X0.412500X-0.650000X0.412500X-0.650000X-0.412500X0*%
%ADD23C,2.700000*%
%ADD24C,1.500000*%
%ADD25RoundRect,0.375000X0.375000X-0.375000X0.375000X0.375000X-0.375000X0.375000X-0.375000X-0.375000X0*%
%ADD26O,1.700000X1.700000*%
%ADD27R,1.700000X1.700000*%
%ADD28RoundRect,0.150000X0.512500X0.150000X-0.512500X0.150000X-0.512500X-0.150000X0.512500X-0.150000X0*%
%ADD29RoundRect,0.250000X0.400000X0.625000X-0.400000X0.625000X-0.400000X-0.625000X0.400000X-0.625000X0*%
%ADD30RoundRect,0.250000X-0.400000X-0.625000X0.400000X-0.625000X0.400000X0.625000X-0.400000X0.625000X0*%
G04 APERTURE END LIST*
D10*
X8737714Y-5352714D02*
X8742476Y-5347952D01*
X8747238Y-5333667D01*
X8747238Y-5324143D01*
X8742476Y-5309857D01*
X8732952Y-5300333D01*
X8723429Y-5295571D01*
X8704381Y-5290810D01*
X8690095Y-5290810D01*
X8671048Y-5295571D01*
X8661524Y-5300333D01*
X8652000Y-5309857D01*
X8647238Y-5324143D01*
X8647238Y-5333667D01*
X8652000Y-5347952D01*
X8656762Y-5352714D01*
X8656762Y-5390810D02*
X8652000Y-5395571D01*
X8647238Y-5405095D01*
X8647238Y-5428905D01*
X8652000Y-5438429D01*
X8656762Y-5443190D01*
X8666286Y-5447952D01*
X8675810Y-5447952D01*
X8690095Y-5443190D01*
X8747238Y-5386048D01*
X8747238Y-5447952D01*
X8680571Y-5533667D02*
X8747238Y-5533667D01*
X8642476Y-5509857D02*
X8713905Y-5486048D01*
X8713905Y-5547952D01*
X7151286Y-6677714D02*
X7156048Y-6682476D01*
X7170333Y-6687238D01*
X7179857Y-6687238D01*
X7194143Y-6682476D01*
X7203667Y-6672952D01*
X7208428Y-6663428D01*
X7213190Y-6644381D01*
X7213190Y-6630095D01*
X7208428Y-6611048D01*
X7203667Y-6601524D01*
X7194143Y-6592000D01*
X7179857Y-6587238D01*
X7170333Y-6587238D01*
X7156048Y-6592000D01*
X7151286Y-6596762D01*
X7056048Y-6687238D02*
X7113190Y-6687238D01*
X7084619Y-6687238D02*
X7084619Y-6587238D01*
X7094143Y-6601524D01*
X7103667Y-6611048D01*
X7113190Y-6615809D01*
X6960809Y-6687238D02*
X7017952Y-6687238D01*
X6989381Y-6687238D02*
X6989381Y-6587238D01*
X6998905Y-6601524D01*
X7008428Y-6611048D01*
X7017952Y-6615809D01*
X13626286Y-7052714D02*
X13631048Y-7057476D01*
X13645333Y-7062238D01*
X13654857Y-7062238D01*
X13669143Y-7057476D01*
X13678667Y-7047952D01*
X13683428Y-7038428D01*
X13688190Y-7019381D01*
X13688190Y-7005095D01*
X13683428Y-6986048D01*
X13678667Y-6976524D01*
X13669143Y-6967000D01*
X13654857Y-6962238D01*
X13645333Y-6962238D01*
X13631048Y-6967000D01*
X13626286Y-6971762D01*
X13588190Y-6971762D02*
X13583428Y-6967000D01*
X13573905Y-6962238D01*
X13550095Y-6962238D01*
X13540571Y-6967000D01*
X13535809Y-6971762D01*
X13531048Y-6981286D01*
X13531048Y-6990809D01*
X13535809Y-7005095D01*
X13592952Y-7062238D01*
X13531048Y-7062238D01*
X13440571Y-6962238D02*
X13488190Y-6962238D01*
X13492952Y-7009857D01*
X13488190Y-7005095D01*
X13478667Y-7000333D01*
X13454857Y-7000333D01*
X13445333Y-7005095D01*
X13440571Y-7009857D01*
X13435809Y-7019381D01*
X13435809Y-7043190D01*
X13440571Y-7052714D01*
X13445333Y-7057476D01*
X13454857Y-7062238D01*
X13478667Y-7062238D01*
X13488190Y-7057476D01*
X13492952Y-7052714D01*
X10401286Y-7052714D02*
X10406048Y-7057476D01*
X10420333Y-7062238D01*
X10429857Y-7062238D01*
X10444143Y-7057476D01*
X10453667Y-7047952D01*
X10458429Y-7038428D01*
X10463190Y-7019381D01*
X10463190Y-7005095D01*
X10458429Y-6986048D01*
X10453667Y-6976524D01*
X10444143Y-6967000D01*
X10429857Y-6962238D01*
X10420333Y-6962238D01*
X10406048Y-6967000D01*
X10401286Y-6971762D01*
X10363190Y-6971762D02*
X10358429Y-6967000D01*
X10348905Y-6962238D01*
X10325095Y-6962238D01*
X10315571Y-6967000D01*
X10310810Y-6971762D01*
X10306048Y-6981286D01*
X10306048Y-6990809D01*
X10310810Y-7005095D01*
X10367952Y-7062238D01*
X10306048Y-7062238D01*
X10210810Y-7062238D02*
X10267952Y-7062238D01*
X10239381Y-7062238D02*
X10239381Y-6962238D01*
X10248905Y-6976524D01*
X10258429Y-6986048D01*
X10267952Y-6990809D01*
X7103667Y-7062714D02*
X7108428Y-7067476D01*
X7122714Y-7072238D01*
X7132238Y-7072238D01*
X7146524Y-7067476D01*
X7156048Y-7057952D01*
X7160809Y-7048428D01*
X7165571Y-7029381D01*
X7165571Y-7015095D01*
X7160809Y-6996048D01*
X7156048Y-6986524D01*
X7146524Y-6977000D01*
X7132238Y-6972238D01*
X7122714Y-6972238D01*
X7108428Y-6977000D01*
X7103667Y-6981762D01*
X7070333Y-6972238D02*
X7003667Y-6972238D01*
X7046524Y-7072238D01*
X10401286Y-6677714D02*
X10406048Y-6682476D01*
X10420333Y-6687238D01*
X10429857Y-6687238D01*
X10444143Y-6682476D01*
X10453667Y-6672952D01*
X10458429Y-6663428D01*
X10463190Y-6644381D01*
X10463190Y-6630095D01*
X10458429Y-6611048D01*
X10453667Y-6601524D01*
X10444143Y-6592000D01*
X10429857Y-6587238D01*
X10420333Y-6587238D01*
X10406048Y-6592000D01*
X10401286Y-6596762D01*
X10363190Y-6596762D02*
X10358429Y-6592000D01*
X10348905Y-6587238D01*
X10325095Y-6587238D01*
X10315571Y-6592000D01*
X10310810Y-6596762D01*
X10306048Y-6606286D01*
X10306048Y-6615809D01*
X10310810Y-6630095D01*
X10367952Y-6687238D01*
X10306048Y-6687238D01*
X10267952Y-6596762D02*
X10263190Y-6592000D01*
X10253667Y-6587238D01*
X10229857Y-6587238D01*
X10220333Y-6592000D01*
X10215571Y-6596762D01*
X10210810Y-6606286D01*
X10210810Y-6615809D01*
X10215571Y-6630095D01*
X10272714Y-6687238D01*
X10210810Y-6687238D01*
X10497714Y-8422714D02*
X10502476Y-8417952D01*
X10507238Y-8403667D01*
X10507238Y-8394143D01*
X10502476Y-8379857D01*
X10492952Y-8370333D01*
X10483429Y-8365571D01*
X10464381Y-8360809D01*
X10450095Y-8360809D01*
X10431048Y-8365571D01*
X10421524Y-8370333D01*
X10412000Y-8379857D01*
X10407238Y-8394143D01*
X10407238Y-8403667D01*
X10412000Y-8417952D01*
X10416762Y-8422714D01*
X10507238Y-8517952D02*
X10507238Y-8460810D01*
X10507238Y-8489381D02*
X10407238Y-8489381D01*
X10421524Y-8479857D01*
X10431048Y-8470333D01*
X10435810Y-8460810D01*
X10440571Y-8603667D02*
X10507238Y-8603667D01*
X10402476Y-8579857D02*
X10473905Y-8556048D01*
X10473905Y-8617952D01*
X10997714Y-8422714D02*
X11002476Y-8417952D01*
X11007238Y-8403667D01*
X11007238Y-8394143D01*
X11002476Y-8379857D01*
X10992952Y-8370333D01*
X10983429Y-8365571D01*
X10964381Y-8360809D01*
X10950095Y-8360809D01*
X10931048Y-8365571D01*
X10921524Y-8370333D01*
X10912000Y-8379857D01*
X10907238Y-8394143D01*
X10907238Y-8403667D01*
X10912000Y-8417952D01*
X10916762Y-8422714D01*
X11007238Y-8517952D02*
X11007238Y-8460810D01*
X11007238Y-8489381D02*
X10907238Y-8489381D01*
X10921524Y-8479857D01*
X10931048Y-8470333D01*
X10935810Y-8460810D01*
X10907238Y-8551286D02*
X10907238Y-8613190D01*
X10945333Y-8579857D01*
X10945333Y-8594143D01*
X10950095Y-8603667D01*
X10954857Y-8608429D01*
X10964381Y-8613190D01*
X10988190Y-8613190D01*
X10997714Y-8608429D01*
X11002476Y-8603667D01*
X11007238Y-8594143D01*
X11007238Y-8565571D01*
X11002476Y-8556048D01*
X10997714Y-8551286D01*
X11497714Y-8422714D02*
X11502476Y-8417952D01*
X11507238Y-8403667D01*
X11507238Y-8394143D01*
X11502476Y-8379857D01*
X11492952Y-8370333D01*
X11483428Y-8365571D01*
X11464381Y-8360809D01*
X11450095Y-8360809D01*
X11431048Y-8365571D01*
X11421524Y-8370333D01*
X11412000Y-8379857D01*
X11407238Y-8394143D01*
X11407238Y-8403667D01*
X11412000Y-8417952D01*
X11416762Y-8422714D01*
X11507238Y-8517952D02*
X11507238Y-8460810D01*
X11507238Y-8489381D02*
X11407238Y-8489381D01*
X11421524Y-8479857D01*
X11431048Y-8470333D01*
X11435809Y-8460810D01*
X11416762Y-8556048D02*
X11412000Y-8560810D01*
X11407238Y-8570333D01*
X11407238Y-8594143D01*
X11412000Y-8603667D01*
X11416762Y-8608429D01*
X11426286Y-8613190D01*
X11435809Y-8613190D01*
X11450095Y-8608429D01*
X11507238Y-8551286D01*
X11507238Y-8613190D01*
X11990714Y-8422714D02*
X11995476Y-8417952D01*
X12000238Y-8403667D01*
X12000238Y-8394143D01*
X11995476Y-8379857D01*
X11985952Y-8370333D01*
X11976428Y-8365571D01*
X11957381Y-8360809D01*
X11943095Y-8360809D01*
X11924048Y-8365571D01*
X11914524Y-8370333D01*
X11905000Y-8379857D01*
X11900238Y-8394143D01*
X11900238Y-8403667D01*
X11905000Y-8417952D01*
X11909762Y-8422714D01*
X12000238Y-8517952D02*
X12000238Y-8460810D01*
X12000238Y-8489381D02*
X11900238Y-8489381D01*
X11914524Y-8479857D01*
X11924048Y-8470333D01*
X11928809Y-8460810D01*
X11900238Y-8579857D02*
X11900238Y-8589381D01*
X11905000Y-8598905D01*
X11909762Y-8603667D01*
X11919286Y-8608429D01*
X11938333Y-8613190D01*
X11962143Y-8613190D01*
X11981190Y-8608429D01*
X11990714Y-8603667D01*
X11995476Y-8598905D01*
X12000238Y-8589381D01*
X12000238Y-8579857D01*
X11995476Y-8570333D01*
X11990714Y-8565571D01*
X11981190Y-8560810D01*
X11962143Y-8556048D01*
X11938333Y-8556048D01*
X11919286Y-8560810D01*
X11909762Y-8565571D01*
X11905000Y-8570333D01*
X11900238Y-8579857D01*
X12490714Y-8470333D02*
X12495476Y-8465571D01*
X12500238Y-8451286D01*
X12500238Y-8441762D01*
X12495476Y-8427476D01*
X12485952Y-8417952D01*
X12476428Y-8413190D01*
X12457381Y-8408429D01*
X12443095Y-8408429D01*
X12424048Y-8413190D01*
X12414524Y-8417952D01*
X12405000Y-8427476D01*
X12400238Y-8441762D01*
X12400238Y-8451286D01*
X12405000Y-8465571D01*
X12409762Y-8470333D01*
X12500238Y-8517952D02*
X12500238Y-8537000D01*
X12495476Y-8546524D01*
X12490714Y-8551286D01*
X12476428Y-8560810D01*
X12457381Y-8565571D01*
X12419286Y-8565571D01*
X12409762Y-8560810D01*
X12405000Y-8556048D01*
X12400238Y-8546524D01*
X12400238Y-8527476D01*
X12405000Y-8517952D01*
X12409762Y-8513190D01*
X12419286Y-8508429D01*
X12443095Y-8508429D01*
X12452619Y-8513190D01*
X12457381Y-8517952D01*
X12462143Y-8527476D01*
X12462143Y-8546524D01*
X12457381Y-8556048D01*
X12452619Y-8560810D01*
X12443095Y-8565571D01*
X12990714Y-8470333D02*
X12995476Y-8465571D01*
X13000238Y-8451286D01*
X13000238Y-8441762D01*
X12995476Y-8427476D01*
X12985952Y-8417952D01*
X12976428Y-8413190D01*
X12957381Y-8408429D01*
X12943095Y-8408429D01*
X12924048Y-8413190D01*
X12914524Y-8417952D01*
X12905000Y-8427476D01*
X12900238Y-8441762D01*
X12900238Y-8451286D01*
X12905000Y-8465571D01*
X12909762Y-8470333D01*
X12943095Y-8527476D02*
X12938333Y-8517952D01*
X12933571Y-8513190D01*
X12924048Y-8508429D01*
X12919286Y-8508429D01*
X12909762Y-8513190D01*
X12905000Y-8517952D01*
X12900238Y-8527476D01*
X12900238Y-8546524D01*
X12905000Y-8556048D01*
X12909762Y-8560810D01*
X12919286Y-8565571D01*
X12924048Y-8565571D01*
X12933571Y-8560810D01*
X12938333Y-8556048D01*
X12943095Y-8546524D01*
X12943095Y-8527476D01*
X12947857Y-8517952D01*
X12952619Y-8513190D01*
X12962143Y-8508429D01*
X12981190Y-8508429D01*
X12990714Y-8513190D01*
X12995476Y-8517952D01*
X13000238Y-8527476D01*
X13000238Y-8546524D01*
X12995476Y-8556048D01*
X12990714Y-8560810D01*
X12981190Y-8565571D01*
X12962143Y-8565571D01*
X12952619Y-8560810D01*
X12947857Y-8556048D01*
X12943095Y-8546524D01*
X9752714Y-8467833D02*
X9757476Y-8463071D01*
X9762238Y-8448786D01*
X9762238Y-8439262D01*
X9757476Y-8424976D01*
X9747952Y-8415452D01*
X9738429Y-8410690D01*
X9719381Y-8405929D01*
X9705095Y-8405929D01*
X9686048Y-8410690D01*
X9676524Y-8415452D01*
X9667000Y-8424976D01*
X9662238Y-8439262D01*
X9662238Y-8448786D01*
X9667000Y-8463071D01*
X9671762Y-8467833D01*
X9762238Y-8563071D02*
X9762238Y-8505929D01*
X9762238Y-8534500D02*
X9662238Y-8534500D01*
X9676524Y-8524976D01*
X9686048Y-8515452D01*
X9690810Y-8505929D01*
X7272714Y-8467833D02*
X7277476Y-8463071D01*
X7282238Y-8448786D01*
X7282238Y-8439262D01*
X7277476Y-8424976D01*
X7267952Y-8415452D01*
X7258428Y-8410690D01*
X7239381Y-8405929D01*
X7225095Y-8405929D01*
X7206048Y-8410690D01*
X7196524Y-8415452D01*
X7187000Y-8424976D01*
X7182238Y-8439262D01*
X7182238Y-8448786D01*
X7187000Y-8463071D01*
X7191762Y-8467833D01*
X7182238Y-8553548D02*
X7182238Y-8534500D01*
X7187000Y-8524976D01*
X7191762Y-8520214D01*
X7206048Y-8510690D01*
X7225095Y-8505929D01*
X7263190Y-8505929D01*
X7272714Y-8510690D01*
X7277476Y-8515452D01*
X7282238Y-8524976D01*
X7282238Y-8544024D01*
X7277476Y-8553548D01*
X7272714Y-8558310D01*
X7263190Y-8563071D01*
X7239381Y-8563071D01*
X7229857Y-8558310D01*
X7225095Y-8553548D01*
X7220333Y-8544024D01*
X7220333Y-8524976D01*
X7225095Y-8515452D01*
X7229857Y-8510690D01*
X7239381Y-8505929D01*
X7772714Y-8467833D02*
X7777476Y-8463071D01*
X7782238Y-8448786D01*
X7782238Y-8439262D01*
X7777476Y-8424976D01*
X7767952Y-8415452D01*
X7758428Y-8410690D01*
X7739381Y-8405929D01*
X7725095Y-8405929D01*
X7706048Y-8410690D01*
X7696524Y-8415452D01*
X7687000Y-8424976D01*
X7682238Y-8439262D01*
X7682238Y-8448786D01*
X7687000Y-8463071D01*
X7691762Y-8467833D01*
X7682238Y-8558310D02*
X7682238Y-8510690D01*
X7729857Y-8505929D01*
X7725095Y-8510690D01*
X7720333Y-8520214D01*
X7720333Y-8544024D01*
X7725095Y-8553548D01*
X7729857Y-8558310D01*
X7739381Y-8563071D01*
X7763190Y-8563071D01*
X7772714Y-8558310D01*
X7777476Y-8553548D01*
X7782238Y-8544024D01*
X7782238Y-8520214D01*
X7777476Y-8510690D01*
X7772714Y-8505929D01*
X9252714Y-8467833D02*
X9257476Y-8463071D01*
X9262238Y-8448786D01*
X9262238Y-8439262D01*
X9257476Y-8424976D01*
X9247952Y-8415452D01*
X9238429Y-8410690D01*
X9219381Y-8405929D01*
X9205095Y-8405929D01*
X9186048Y-8410690D01*
X9176524Y-8415452D01*
X9167000Y-8424976D01*
X9162238Y-8439262D01*
X9162238Y-8448786D01*
X9167000Y-8463071D01*
X9171762Y-8467833D01*
X9171762Y-8505929D02*
X9167000Y-8510690D01*
X9162238Y-8520214D01*
X9162238Y-8544024D01*
X9167000Y-8553548D01*
X9171762Y-8558310D01*
X9181286Y-8563071D01*
X9190810Y-8563071D01*
X9205095Y-8558310D01*
X9262238Y-8501167D01*
X9262238Y-8563071D01*
X8272714Y-8467833D02*
X8277476Y-8463071D01*
X8282238Y-8448786D01*
X8282238Y-8439262D01*
X8277476Y-8424976D01*
X8267952Y-8415452D01*
X8258428Y-8410690D01*
X8239381Y-8405929D01*
X8225095Y-8405929D01*
X8206048Y-8410690D01*
X8196524Y-8415452D01*
X8187000Y-8424976D01*
X8182238Y-8439262D01*
X8182238Y-8448786D01*
X8187000Y-8463071D01*
X8191762Y-8467833D01*
X8215571Y-8553548D02*
X8282238Y-8553548D01*
X8177476Y-8529738D02*
X8248905Y-8505929D01*
X8248905Y-8567833D01*
X8752714Y-8467833D02*
X8757476Y-8463071D01*
X8762238Y-8448786D01*
X8762238Y-8439262D01*
X8757476Y-8424976D01*
X8747952Y-8415452D01*
X8738429Y-8410690D01*
X8719381Y-8405929D01*
X8705095Y-8405929D01*
X8686048Y-8410690D01*
X8676524Y-8415452D01*
X8667000Y-8424976D01*
X8662238Y-8439262D01*
X8662238Y-8448786D01*
X8667000Y-8463071D01*
X8671762Y-8467833D01*
X8662238Y-8501167D02*
X8662238Y-8563071D01*
X8700333Y-8529738D01*
X8700333Y-8544024D01*
X8705095Y-8553548D01*
X8709857Y-8558310D01*
X8719381Y-8563071D01*
X8743190Y-8563071D01*
X8752714Y-8558310D01*
X8757476Y-8553548D01*
X8762238Y-8544024D01*
X8762238Y-8515452D01*
X8757476Y-8505929D01*
X8752714Y-8501167D01*
X15770333Y-5072238D02*
X15770333Y-5143667D01*
X15775095Y-5157952D01*
X15784619Y-5167476D01*
X15798905Y-5172238D01*
X15808428Y-5172238D01*
X15670333Y-5172238D02*
X15727476Y-5172238D01*
X15698905Y-5172238D02*
X15698905Y-5072238D01*
X15708428Y-5086524D01*
X15717952Y-5096048D01*
X15727476Y-5100810D01*
X9433190Y-5062238D02*
X9433190Y-5143190D01*
X9428429Y-5152714D01*
X9423667Y-5157476D01*
X9414143Y-5162238D01*
X9395095Y-5162238D01*
X9385571Y-5157476D01*
X9380810Y-5152714D01*
X9376048Y-5143190D01*
X9376048Y-5062238D01*
X9285571Y-5062238D02*
X9304619Y-5062238D01*
X9314143Y-5067000D01*
X9318905Y-5071762D01*
X9328429Y-5086048D01*
X9333190Y-5105095D01*
X9333190Y-5143190D01*
X9328429Y-5152714D01*
X9323667Y-5157476D01*
X9314143Y-5162238D01*
X9295095Y-5162238D01*
X9285571Y-5157476D01*
X9280810Y-5152714D01*
X9276048Y-5143190D01*
X9276048Y-5119381D01*
X9280810Y-5109857D01*
X9285571Y-5105095D01*
X9295095Y-5100333D01*
X9314143Y-5100333D01*
X9323667Y-5105095D01*
X9328429Y-5109857D01*
X9333190Y-5119381D01*
X13626286Y-6677714D02*
X13631048Y-6682476D01*
X13645333Y-6687238D01*
X13654857Y-6687238D01*
X13669143Y-6682476D01*
X13678667Y-6672952D01*
X13683428Y-6663428D01*
X13688190Y-6644381D01*
X13688190Y-6630095D01*
X13683428Y-6611048D01*
X13678667Y-6601524D01*
X13669143Y-6592000D01*
X13654857Y-6587238D01*
X13645333Y-6587238D01*
X13631048Y-6592000D01*
X13626286Y-6596762D01*
X13588190Y-6596762D02*
X13583428Y-6592000D01*
X13573905Y-6587238D01*
X13550095Y-6587238D01*
X13540571Y-6592000D01*
X13535809Y-6596762D01*
X13531048Y-6606286D01*
X13531048Y-6615809D01*
X13535809Y-6630095D01*
X13592952Y-6687238D01*
X13531048Y-6687238D01*
X13445333Y-6587238D02*
X13464381Y-6587238D01*
X13473905Y-6592000D01*
X13478667Y-6596762D01*
X13488190Y-6611048D01*
X13492952Y-6630095D01*
X13492952Y-6668190D01*
X13488190Y-6677714D01*
X13483428Y-6682476D01*
X13473905Y-6687238D01*
X13454857Y-6687238D01*
X13445333Y-6682476D01*
X13440571Y-6677714D01*
X13435809Y-6668190D01*
X13435809Y-6644381D01*
X13440571Y-6634857D01*
X13445333Y-6630095D01*
X13454857Y-6625333D01*
X13473905Y-6625333D01*
X13483428Y-6630095D01*
X13488190Y-6634857D01*
X13492952Y-6644381D01*
X13747714Y-8422714D02*
X13752476Y-8417952D01*
X13757238Y-8403667D01*
X13757238Y-8394143D01*
X13752476Y-8379857D01*
X13742952Y-8370333D01*
X13733428Y-8365571D01*
X13714381Y-8360809D01*
X13700095Y-8360809D01*
X13681048Y-8365571D01*
X13671524Y-8370333D01*
X13662000Y-8379857D01*
X13657238Y-8394143D01*
X13657238Y-8403667D01*
X13662000Y-8417952D01*
X13666762Y-8422714D01*
X13666762Y-8460810D02*
X13662000Y-8465571D01*
X13657238Y-8475095D01*
X13657238Y-8498905D01*
X13662000Y-8508429D01*
X13666762Y-8513190D01*
X13676286Y-8517952D01*
X13685809Y-8517952D01*
X13700095Y-8513190D01*
X13757238Y-8456048D01*
X13757238Y-8517952D01*
X13657238Y-8579857D02*
X13657238Y-8589381D01*
X13662000Y-8598905D01*
X13666762Y-8603667D01*
X13676286Y-8608429D01*
X13695333Y-8613190D01*
X13719143Y-8613190D01*
X13738190Y-8608429D01*
X13747714Y-8603667D01*
X13752476Y-8598905D01*
X13757238Y-8589381D01*
X13757238Y-8579857D01*
X13752476Y-8570333D01*
X13747714Y-8565571D01*
X13738190Y-8560810D01*
X13719143Y-8556048D01*
X13695333Y-8556048D01*
X13676286Y-8560810D01*
X13666762Y-8565571D01*
X13662000Y-8570333D01*
X13657238Y-8579857D01*
X15747714Y-8422714D02*
X15752476Y-8417952D01*
X15757238Y-8403667D01*
X15757238Y-8394143D01*
X15752476Y-8379857D01*
X15742952Y-8370333D01*
X15733428Y-8365571D01*
X15714381Y-8360809D01*
X15700095Y-8360809D01*
X15681048Y-8365571D01*
X15671524Y-8370333D01*
X15662000Y-8379857D01*
X15657238Y-8394143D01*
X15657238Y-8403667D01*
X15662000Y-8417952D01*
X15666762Y-8422714D01*
X15757238Y-8517952D02*
X15757238Y-8460810D01*
X15757238Y-8489381D02*
X15657238Y-8489381D01*
X15671524Y-8479857D01*
X15681048Y-8470333D01*
X15685809Y-8460810D01*
X15657238Y-8603667D02*
X15657238Y-8584619D01*
X15662000Y-8575095D01*
X15666762Y-8570333D01*
X15681048Y-8560810D01*
X15700095Y-8556048D01*
X15738190Y-8556048D01*
X15747714Y-8560810D01*
X15752476Y-8565571D01*
X15757238Y-8575095D01*
X15757238Y-8594143D01*
X15752476Y-8603667D01*
X15747714Y-8608429D01*
X15738190Y-8613190D01*
X15714381Y-8613190D01*
X15704857Y-8608429D01*
X15700095Y-8603667D01*
X15695333Y-8594143D01*
X15695333Y-8575095D01*
X15700095Y-8565571D01*
X15704857Y-8560810D01*
X15714381Y-8556048D01*
X10476286Y-5772238D02*
X10509619Y-5724619D01*
X10533429Y-5772238D02*
X10533429Y-5672238D01*
X10495333Y-5672238D01*
X10485810Y-5677000D01*
X10481048Y-5681762D01*
X10476286Y-5691286D01*
X10476286Y-5705571D01*
X10481048Y-5715095D01*
X10485810Y-5719857D01*
X10495333Y-5724619D01*
X10533429Y-5724619D01*
X10438190Y-5681762D02*
X10433429Y-5677000D01*
X10423905Y-5672238D01*
X10400095Y-5672238D01*
X10390571Y-5677000D01*
X10385810Y-5681762D01*
X10381048Y-5691286D01*
X10381048Y-5700809D01*
X10385810Y-5715095D01*
X10442952Y-5772238D01*
X10381048Y-5772238D01*
X10290571Y-5672238D02*
X10338190Y-5672238D01*
X10342952Y-5719857D01*
X10338190Y-5715095D01*
X10328667Y-5710333D01*
X10304857Y-5710333D01*
X10295333Y-5715095D01*
X10290571Y-5719857D01*
X10285810Y-5729381D01*
X10285810Y-5753190D01*
X10290571Y-5762714D01*
X10295333Y-5767476D01*
X10304857Y-5772238D01*
X10328667Y-5772238D01*
X10338190Y-5767476D01*
X10342952Y-5762714D01*
X15247714Y-8422714D02*
X15252476Y-8417952D01*
X15257238Y-8403667D01*
X15257238Y-8394143D01*
X15252476Y-8379857D01*
X15242952Y-8370333D01*
X15233428Y-8365571D01*
X15214381Y-8360809D01*
X15200095Y-8360809D01*
X15181048Y-8365571D01*
X15171524Y-8370333D01*
X15162000Y-8379857D01*
X15157238Y-8394143D01*
X15157238Y-8403667D01*
X15162000Y-8417952D01*
X15166762Y-8422714D01*
X15257238Y-8517952D02*
X15257238Y-8460810D01*
X15257238Y-8489381D02*
X15157238Y-8489381D01*
X15171524Y-8479857D01*
X15181048Y-8470333D01*
X15185809Y-8460810D01*
X15157238Y-8551286D02*
X15157238Y-8617952D01*
X15257238Y-8575095D01*
X9717714Y-5367714D02*
X9722476Y-5362952D01*
X9727238Y-5348667D01*
X9727238Y-5339143D01*
X9722476Y-5324857D01*
X9712952Y-5315333D01*
X9703429Y-5310571D01*
X9684381Y-5305810D01*
X9670095Y-5305810D01*
X9651048Y-5310571D01*
X9641524Y-5315333D01*
X9632000Y-5324857D01*
X9627238Y-5339143D01*
X9627238Y-5348667D01*
X9632000Y-5362952D01*
X9636762Y-5367714D01*
X9636762Y-5405810D02*
X9632000Y-5410571D01*
X9627238Y-5420095D01*
X9627238Y-5443905D01*
X9632000Y-5453429D01*
X9636762Y-5458190D01*
X9646286Y-5462952D01*
X9655810Y-5462952D01*
X9670095Y-5458190D01*
X9727238Y-5401048D01*
X9727238Y-5462952D01*
X9627238Y-5496286D02*
X9627238Y-5558190D01*
X9665333Y-5524857D01*
X9665333Y-5539143D01*
X9670095Y-5548667D01*
X9674857Y-5553429D01*
X9684381Y-5558190D01*
X9708190Y-5558190D01*
X9717714Y-5553429D01*
X9722476Y-5548667D01*
X9727238Y-5539143D01*
X9727238Y-5510571D01*
X9722476Y-5501048D01*
X9717714Y-5496286D01*
X14747714Y-8422714D02*
X14752476Y-8417952D01*
X14757238Y-8403667D01*
X14757238Y-8394143D01*
X14752476Y-8379857D01*
X14742952Y-8370333D01*
X14733428Y-8365571D01*
X14714381Y-8360809D01*
X14700095Y-8360809D01*
X14681048Y-8365571D01*
X14671524Y-8370333D01*
X14662000Y-8379857D01*
X14657238Y-8394143D01*
X14657238Y-8403667D01*
X14662000Y-8417952D01*
X14666762Y-8422714D01*
X14757238Y-8517952D02*
X14757238Y-8460810D01*
X14757238Y-8489381D02*
X14657238Y-8489381D01*
X14671524Y-8479857D01*
X14681048Y-8470333D01*
X14685809Y-8460810D01*
X14700095Y-8575095D02*
X14695333Y-8565571D01*
X14690571Y-8560810D01*
X14681048Y-8556048D01*
X14676286Y-8556048D01*
X14666762Y-8560810D01*
X14662000Y-8565571D01*
X14657238Y-8575095D01*
X14657238Y-8594143D01*
X14662000Y-8603667D01*
X14666762Y-8608429D01*
X14676286Y-8613190D01*
X14681048Y-8613190D01*
X14690571Y-8608429D01*
X14695333Y-8603667D01*
X14700095Y-8594143D01*
X14700095Y-8575095D01*
X14704857Y-8565571D01*
X14709619Y-8560810D01*
X14719143Y-8556048D01*
X14738190Y-8556048D01*
X14747714Y-8560810D01*
X14752476Y-8565571D01*
X14757238Y-8575095D01*
X14757238Y-8594143D01*
X14752476Y-8603667D01*
X14747714Y-8608429D01*
X14738190Y-8613190D01*
X14719143Y-8613190D01*
X14709619Y-8608429D01*
X14704857Y-8603667D01*
X14700095Y-8594143D01*
X10476286Y-5897238D02*
X10509619Y-5849619D01*
X10533429Y-5897238D02*
X10533429Y-5797238D01*
X10495333Y-5797238D01*
X10485810Y-5802000D01*
X10481048Y-5806762D01*
X10476286Y-5816286D01*
X10476286Y-5830571D01*
X10481048Y-5840095D01*
X10485810Y-5844857D01*
X10495333Y-5849619D01*
X10533429Y-5849619D01*
X10438190Y-5806762D02*
X10433429Y-5802000D01*
X10423905Y-5797238D01*
X10400095Y-5797238D01*
X10390571Y-5802000D01*
X10385810Y-5806762D01*
X10381048Y-5816286D01*
X10381048Y-5825809D01*
X10385810Y-5840095D01*
X10442952Y-5897238D01*
X10381048Y-5897238D01*
X10295333Y-5797238D02*
X10314381Y-5797238D01*
X10323905Y-5802000D01*
X10328667Y-5806762D01*
X10338190Y-5821048D01*
X10342952Y-5840095D01*
X10342952Y-5878190D01*
X10338190Y-5887714D01*
X10333429Y-5892476D01*
X10323905Y-5897238D01*
X10304857Y-5897238D01*
X10295333Y-5892476D01*
X10290571Y-5887714D01*
X10285810Y-5878190D01*
X10285810Y-5854381D01*
X10290571Y-5844857D01*
X10295333Y-5840095D01*
X10304857Y-5835333D01*
X10323905Y-5835333D01*
X10333429Y-5840095D01*
X10338190Y-5844857D01*
X10342952Y-5854381D01*
X14247714Y-8422714D02*
X14252476Y-8417952D01*
X14257238Y-8403667D01*
X14257238Y-8394143D01*
X14252476Y-8379857D01*
X14242952Y-8370333D01*
X14233428Y-8365571D01*
X14214381Y-8360809D01*
X14200095Y-8360809D01*
X14181048Y-8365571D01*
X14171524Y-8370333D01*
X14162000Y-8379857D01*
X14157238Y-8394143D01*
X14157238Y-8403667D01*
X14162000Y-8417952D01*
X14166762Y-8422714D01*
X14257238Y-8517952D02*
X14257238Y-8460810D01*
X14257238Y-8489381D02*
X14157238Y-8489381D01*
X14171524Y-8479857D01*
X14181048Y-8470333D01*
X14185809Y-8460810D01*
X14257238Y-8565571D02*
X14257238Y-8584619D01*
X14252476Y-8594143D01*
X14247714Y-8598905D01*
X14233428Y-8608429D01*
X14214381Y-8613190D01*
X14176286Y-8613190D01*
X14166762Y-8608429D01*
X14162000Y-8603667D01*
X14157238Y-8594143D01*
X14157238Y-8575095D01*
X14162000Y-8565571D01*
X14166762Y-8560810D01*
X14176286Y-8556048D01*
X14200095Y-8556048D01*
X14209619Y-8560810D01*
X14214381Y-8565571D01*
X14219143Y-8575095D01*
X14219143Y-8594143D01*
X14214381Y-8603667D01*
X14209619Y-8608429D01*
X14200095Y-8613190D01*
X16247714Y-8422714D02*
X16252476Y-8417952D01*
X16257238Y-8403667D01*
X16257238Y-8394143D01*
X16252476Y-8379857D01*
X16242952Y-8370333D01*
X16233428Y-8365571D01*
X16214381Y-8360809D01*
X16200095Y-8360809D01*
X16181048Y-8365571D01*
X16171524Y-8370333D01*
X16162000Y-8379857D01*
X16157238Y-8394143D01*
X16157238Y-8403667D01*
X16162000Y-8417952D01*
X16166762Y-8422714D01*
X16257238Y-8517952D02*
X16257238Y-8460810D01*
X16257238Y-8489381D02*
X16157238Y-8489381D01*
X16171524Y-8479857D01*
X16181048Y-8470333D01*
X16185809Y-8460810D01*
X16157238Y-8608429D02*
X16157238Y-8560810D01*
X16204857Y-8556048D01*
X16200095Y-8560810D01*
X16195333Y-8570333D01*
X16195333Y-8594143D01*
X16200095Y-8603667D01*
X16204857Y-8608429D01*
X16214381Y-8613190D01*
X16238190Y-8613190D01*
X16247714Y-8608429D01*
X16252476Y-8603667D01*
X16257238Y-8594143D01*
X16257238Y-8570333D01*
X16252476Y-8560810D01*
X16247714Y-8556048D01*
D11*
X8970500Y-5168500D02*
X8970500Y-5577000D01*
X8783500Y-5168500D02*
X8970500Y-5168500D01*
X8783500Y-5577000D02*
X8783500Y-5168500D01*
X7158125Y-6918000D02*
X7015875Y-6918000D01*
X7158125Y-6736000D02*
X7015875Y-6736000D01*
X13810500Y-7285500D02*
X13402000Y-7285500D01*
X13810500Y-7098500D02*
X13810500Y-7285500D01*
X13402000Y-7098500D02*
X13810500Y-7098500D01*
X10585500Y-7285500D02*
X10177000Y-7285500D01*
X10585500Y-7098500D02*
X10585500Y-7285500D01*
X10177000Y-7098500D02*
X10585500Y-7098500D01*
X7335500Y-7295500D02*
X6927000Y-7295500D01*
X7335500Y-7108500D02*
X7335500Y-7295500D01*
X6927000Y-7108500D02*
X7335500Y-7108500D01*
X10408125Y-6736000D02*
X10265875Y-6736000D01*
X10408125Y-6918000D02*
X10265875Y-6918000D01*
X10361000Y-8415875D02*
X10361000Y-8558125D01*
X10179000Y-8415875D02*
X10179000Y-8558125D01*
X10679000Y-8415875D02*
X10679000Y-8558125D01*
X10861000Y-8415875D02*
X10861000Y-8558125D01*
X11179000Y-8415875D02*
X11179000Y-8558125D01*
X11361000Y-8415875D02*
X11361000Y-8558125D01*
X11861000Y-8558125D02*
X11861000Y-8415875D01*
X11679000Y-8558125D02*
X11679000Y-8415875D01*
X12361000Y-8558125D02*
X12361000Y-8415875D01*
X12179000Y-8558125D02*
X12179000Y-8415875D01*
X12861000Y-8558125D02*
X12861000Y-8415875D01*
X12679000Y-8558125D02*
X12679000Y-8415875D01*
X9441000Y-8555625D02*
X9441000Y-8413375D01*
X9623000Y-8555625D02*
X9623000Y-8413375D01*
X7122635Y-8413375D02*
X7122635Y-8555625D01*
X6940635Y-8413375D02*
X6940635Y-8555625D01*
X7623000Y-8413375D02*
X7623000Y-8555625D01*
X7441000Y-8413375D02*
X7441000Y-8555625D01*
X8941000Y-8555625D02*
X8941000Y-8413375D01*
X9123000Y-8555625D02*
X9123000Y-8413375D01*
X8123000Y-8413375D02*
X8123000Y-8555625D01*
X7941000Y-8413375D02*
X7941000Y-8555625D01*
X8441000Y-8555625D02*
X8441000Y-8413375D01*
X8623000Y-8555625D02*
X8623000Y-8413375D01*
X10704000Y-5010000D02*
X10837000Y-5010000D01*
X10704000Y-4877000D02*
X10704000Y-5010000D01*
X10964000Y-4750000D02*
X10964000Y-5010000D01*
X10704000Y-4750000D02*
X10964000Y-4750000D01*
X15796000Y-4490000D02*
X15796000Y-5010000D01*
X10704000Y-4490000D02*
X10704000Y-4750000D01*
X10964000Y-5010000D02*
X15796000Y-5010000D01*
X10704000Y-4490000D02*
X15796000Y-4490000D01*
X9357000Y-5513000D02*
X9277000Y-5513000D01*
X9357000Y-5201000D02*
X9277000Y-5201000D01*
X9357000Y-5201000D02*
X9537000Y-5201000D01*
X9357000Y-5513000D02*
X9437000Y-5513000D01*
X13633125Y-6918000D02*
X13490875Y-6918000D01*
X13633125Y-6736000D02*
X13490875Y-6736000D01*
X13416000Y-8415875D02*
X13416000Y-8558125D01*
X13598000Y-8415875D02*
X13598000Y-8558125D01*
X15598000Y-8558125D02*
X15598000Y-8415875D01*
X15416000Y-8558125D02*
X15416000Y-8415875D01*
X10359706Y-5618000D02*
X10214294Y-5618000D01*
X10359706Y-5436000D02*
X10214294Y-5436000D01*
X15098000Y-8558125D02*
X15098000Y-8415875D01*
X14916000Y-8558125D02*
X14916000Y-8415875D01*
X9776000Y-5360875D02*
X9776000Y-5503125D01*
X9958000Y-5360875D02*
X9958000Y-5503125D01*
X14416000Y-8415875D02*
X14416000Y-8558125D01*
X14598000Y-8415875D02*
X14598000Y-8558125D01*
X10214294Y-5186000D02*
X10359706Y-5186000D01*
X10214294Y-5368000D02*
X10359706Y-5368000D01*
X13916000Y-8415875D02*
X13916000Y-8558125D01*
X14098000Y-8415875D02*
X14098000Y-8558125D01*
X16098000Y-8558125D02*
X16098000Y-8415875D01*
X15916000Y-8558125D02*
X15916000Y-8415875D01*
%LPC*%
D12*
X8877000Y-5273250D03*
X8877000Y-5560750D03*
D13*
X7243250Y-6827000D03*
X6930750Y-6827000D03*
D14*
X13705750Y-7192000D03*
X13418250Y-7192000D03*
X10480750Y-7192000D03*
X10193250Y-7192000D03*
X7230750Y-7202000D03*
X6943250Y-7202000D03*
D15*
X11592000Y-7192000D03*
D16*
X11592000Y-6938000D03*
X11592000Y-6684000D03*
X11592000Y-6430000D03*
X11592000Y-6176000D03*
X11592000Y-5922000D03*
X11592000Y-5668000D03*
X11592000Y-5414000D03*
X10830000Y-5414000D03*
X10830000Y-5668000D03*
X10830000Y-5922000D03*
X10830000Y-6176000D03*
X10830000Y-6430000D03*
X10830000Y-6684000D03*
X10830000Y-6938000D03*
X10830000Y-7192000D03*
D17*
X11197000Y-9652000D03*
X11697000Y-9652000D03*
X12197000Y-9652000D03*
X12697000Y-9652000D03*
X12697000Y-12652000D03*
X12197000Y-12652000D03*
X11697000Y-12652000D03*
D18*
X11197000Y-12652000D03*
D19*
X12770000Y-8037000D03*
D20*
X12520000Y-8037000D03*
X12270000Y-8037000D03*
X12020000Y-8037000D03*
X11770000Y-8037000D03*
X11520000Y-8037000D03*
X11270000Y-8037000D03*
X11020000Y-8037000D03*
X10770000Y-8037000D03*
X10520000Y-8037000D03*
X10270000Y-8037000D03*
X10020000Y-8037000D03*
D13*
X10180750Y-6827000D03*
X10493250Y-6827000D03*
D21*
X10270000Y-8330750D03*
X10270000Y-8643250D03*
X10770000Y-8643250D03*
X10770000Y-8330750D03*
X11270000Y-8643250D03*
X11270000Y-8330750D03*
D22*
X11770000Y-8330750D03*
X11770000Y-8643250D03*
X12270000Y-8330750D03*
X12270000Y-8643250D03*
X12770000Y-8330750D03*
X12770000Y-8643250D03*
D15*
X8342000Y-7202000D03*
D16*
X8342000Y-6948000D03*
X8342000Y-6694000D03*
X8342000Y-6440000D03*
X8342000Y-6186000D03*
X8342000Y-5932000D03*
X8342000Y-5678000D03*
X8342000Y-5424000D03*
X7580000Y-5424000D03*
X7580000Y-5678000D03*
X7580000Y-5932000D03*
X7580000Y-6186000D03*
X7580000Y-6440000D03*
X7580000Y-6694000D03*
X7580000Y-6948000D03*
X7580000Y-7202000D03*
D17*
X7997000Y-9652000D03*
X8497000Y-9652000D03*
X8997000Y-9652000D03*
X9497000Y-9652000D03*
X9497000Y-12652000D03*
X8997000Y-12652000D03*
X8497000Y-12652000D03*
D18*
X7997000Y-12652000D03*
D20*
X6782000Y-8037088D03*
X7032000Y-8037088D03*
X7282000Y-8037088D03*
X7532000Y-8037088D03*
X7782000Y-8037088D03*
X8032000Y-8037088D03*
X8282000Y-8037088D03*
X8532000Y-8037088D03*
X8782000Y-8037088D03*
X9032000Y-8037088D03*
X9282000Y-8037088D03*
D19*
X9532000Y-8037088D03*
D22*
X9532000Y-8640750D03*
X9532000Y-8328250D03*
D21*
X7031635Y-8328250D03*
X7031635Y-8640750D03*
X7532000Y-8328250D03*
X7532000Y-8640750D03*
D22*
X9032000Y-8640750D03*
X9032000Y-8328250D03*
D21*
X8032000Y-8328250D03*
X8032000Y-8640750D03*
D22*
X8532000Y-8640750D03*
X8532000Y-8328250D03*
D23*
X16150000Y-4750000D03*
D24*
X6987000Y-10577000D03*
X6987000Y-10927000D03*
X6987000Y-11277000D03*
X6987000Y-11627000D03*
X6987000Y-11977000D03*
D25*
X6987000Y-12327000D03*
D18*
X13807000Y-12652000D03*
D17*
X14307000Y-12652000D03*
X14807000Y-12652000D03*
X15307000Y-12652000D03*
X15307000Y-9652000D03*
X14807000Y-9652000D03*
X14307000Y-9652000D03*
X13807000Y-9652000D03*
D23*
X10350000Y-9650000D03*
D16*
X14055000Y-7192000D03*
X14055000Y-6938000D03*
X14055000Y-6684000D03*
X14055000Y-6430000D03*
X14055000Y-6176000D03*
X14055000Y-5922000D03*
X14055000Y-5668000D03*
X14055000Y-5414000D03*
X14817000Y-5414000D03*
X14817000Y-5668000D03*
X14817000Y-5922000D03*
X14817000Y-6176000D03*
X14817000Y-6430000D03*
X14817000Y-6684000D03*
X14817000Y-6938000D03*
D15*
X14817000Y-7192000D03*
D23*
X10350000Y-4750000D03*
X16150000Y-9650000D03*
D20*
X13257000Y-8037000D03*
X13507000Y-8037000D03*
X13757000Y-8037000D03*
X14007000Y-8037000D03*
X14257000Y-8037000D03*
X14507000Y-8037000D03*
X14757000Y-8037000D03*
X15007000Y-8037000D03*
X15257000Y-8037000D03*
X15507000Y-8037000D03*
X15757000Y-8037000D03*
D19*
X16007000Y-8037000D03*
D26*
X15663000Y-4623000D03*
X15663000Y-4877000D03*
X15409000Y-4623000D03*
X15409000Y-4877000D03*
X15155000Y-4623000D03*
X15155000Y-4877000D03*
X14901000Y-4623000D03*
X14901000Y-4877000D03*
X14647000Y-4623000D03*
X14647000Y-4877000D03*
X14393000Y-4623000D03*
X14393000Y-4877000D03*
X14139000Y-4623000D03*
X14139000Y-4877000D03*
X13885000Y-4623000D03*
X13885000Y-4877000D03*
X13631000Y-4623000D03*
X13631000Y-4877000D03*
X13377000Y-4623000D03*
X13377000Y-4877000D03*
X13123000Y-4623000D03*
X13123000Y-4877000D03*
X12869000Y-4623000D03*
X12869000Y-4877000D03*
X12615000Y-4623000D03*
X12615000Y-4877000D03*
X12361000Y-4623000D03*
X12361000Y-4877000D03*
X12107000Y-4623000D03*
X12107000Y-4877000D03*
X11853000Y-4623000D03*
X11853000Y-4877000D03*
X11599000Y-4623000D03*
X11599000Y-4877000D03*
X11345000Y-4623000D03*
X11345000Y-4877000D03*
X11091000Y-4623000D03*
X11091000Y-4877000D03*
X10837000Y-4623000D03*
D27*
X10837000Y-4877000D03*
D28*
X9243250Y-5262000D03*
X9243250Y-5452000D03*
X9470750Y-5452000D03*
X9470750Y-5357000D03*
X9470750Y-5262000D03*
D13*
X13718250Y-6827000D03*
X13405750Y-6827000D03*
D21*
X13507000Y-8643250D03*
X13507000Y-8330750D03*
D22*
X15507000Y-8330750D03*
X15507000Y-8643250D03*
D29*
X10132000Y-5527000D03*
X10442000Y-5527000D03*
D22*
X15007000Y-8330750D03*
X15007000Y-8643250D03*
D21*
X9867000Y-5588250D03*
X9867000Y-5275750D03*
X14507000Y-8643250D03*
X14507000Y-8330750D03*
D30*
X10442000Y-5277000D03*
X10132000Y-5277000D03*
D21*
X14007000Y-8643250D03*
X14007000Y-8330750D03*
D22*
X16007000Y-8330750D03*
X16007000Y-8643250D03*
M02*
