M48
; DRILL file {KiCad (6.0.8)} date Sun 16 Oct 2022 23:30:28 CEST
; FORMAT={-:-/ absolute / metric / decimal}
; #@! TF.CreationDate,2022-10-16T23:30:28+02:00
; #@! TF.GenerationSoftware,Kicad,Pcbnew,(6.0.8)
; #@! TF.FileFunction,Plated,1,2,PTH
FMAT,2
METRIC
; #@! TA.AperFunction,Plated,PTH,ViaDrill
T1C0.600
; #@! TA.AperFunction,Plated,PTH,ViaDrill
T2C0.700
; #@! TA.AperFunction,Plated,PTH,ComponentDrill
T3C0.800
; #@! TA.AperFunction,Plated,PTH,ComponentDrill
T4C1.000
; #@! TA.AperFunction,Plated,PTH,ComponentDrill
T5C1.100
%
G90
G05
T1
X91.37Y-72.27
X95.745Y-76.52
X120.42Y-57.076
X127.07Y-59.582
X128.12Y-76.52
X136.479Y-62.129
X160.495Y-76.52
T2
X92.745Y-77.27
X125.12Y-77.27
X157.495Y-77.27
T3
X75.8Y-54.24
X75.8Y-56.78
X75.8Y-59.32
X75.8Y-61.86
X75.8Y-64.4
X75.8Y-66.94
X75.8Y-69.48
X75.8Y-72.02
X83.42Y-54.24
X83.42Y-56.78
X83.42Y-59.32
X83.42Y-61.86
X83.42Y-64.4
X83.42Y-66.94
X83.42Y-69.48
X83.42Y-72.02
X108.3Y-54.14
X108.3Y-56.68
X108.3Y-59.22
X108.3Y-61.76
X108.3Y-64.3
X108.3Y-66.84
X108.3Y-69.38
X108.3Y-71.92
X115.92Y-54.14
X115.92Y-56.68
X115.92Y-59.22
X115.92Y-61.76
X115.92Y-64.3
X115.92Y-66.84
X115.92Y-69.38
X115.92Y-71.92
X140.55Y-54.14
X140.55Y-56.68
X140.55Y-59.22
X140.55Y-61.76
X140.55Y-64.3
X140.55Y-66.84
X140.55Y-69.38
X140.55Y-71.92
X148.17Y-54.14
X148.17Y-56.68
X148.17Y-59.22
X148.17Y-61.76
X148.17Y-64.3
X148.17Y-66.84
X148.17Y-69.38
X148.17Y-71.92
T4
X69.87Y-105.77
X69.87Y-109.27
X69.87Y-112.77
X69.87Y-116.27
X69.87Y-119.77
X69.87Y-123.27
X79.97Y-96.52
X79.97Y-126.52
X84.97Y-96.52
X84.97Y-126.52
X89.97Y-96.52
X89.97Y-126.52
X94.97Y-96.52
X94.97Y-126.52
X108.37Y-46.23
X108.37Y-48.77
X110.91Y-46.23
X110.91Y-48.77
X111.97Y-96.52
X111.97Y-126.52
X113.45Y-46.23
X113.45Y-48.77
X115.99Y-46.23
X115.99Y-48.77
X116.97Y-96.52
X116.97Y-126.52
X118.53Y-46.23
X118.53Y-48.77
X121.07Y-46.23
X121.07Y-48.77
X121.97Y-96.52
X121.97Y-126.52
X123.61Y-46.23
X123.61Y-48.77
X126.15Y-46.23
X126.15Y-48.77
X126.97Y-96.52
X126.97Y-126.52
X128.69Y-46.23
X128.69Y-48.77
X131.23Y-46.23
X131.23Y-48.77
X133.77Y-46.23
X133.77Y-48.77
X136.31Y-46.23
X136.31Y-48.77
X138.07Y-96.52
X138.07Y-126.52
X138.85Y-46.23
X138.85Y-48.77
X141.39Y-46.23
X141.39Y-48.77
X143.07Y-96.52
X143.07Y-126.52
X143.93Y-46.23
X143.93Y-48.77
X146.47Y-46.23
X146.47Y-48.77
X148.07Y-96.52
X148.07Y-126.52
X149.01Y-46.23
X149.01Y-48.77
X151.55Y-46.23
X151.55Y-48.77
X153.07Y-96.52
X153.07Y-126.52
X154.09Y-46.23
X154.09Y-48.77
X156.63Y-46.23
X156.63Y-48.77
T5
X67.82Y-80.371
X70.32Y-80.371
X72.82Y-80.371
X75.32Y-80.371
X77.82Y-80.371
X80.32Y-80.371
X82.82Y-80.371
X85.32Y-80.371
X87.82Y-80.371
X90.32Y-80.371
X92.82Y-80.371
X95.32Y-80.371
X100.2Y-80.37
X102.7Y-80.37
X105.2Y-80.37
X107.7Y-80.37
X110.2Y-80.37
X112.7Y-80.37
X115.2Y-80.37
X117.7Y-80.37
X120.2Y-80.37
X122.7Y-80.37
X125.2Y-80.37
X127.7Y-80.37
X132.57Y-80.37
X135.07Y-80.37
X137.57Y-80.37
X140.07Y-80.37
X142.57Y-80.37
X145.07Y-80.37
X147.57Y-80.37
X150.07Y-80.37
X152.57Y-80.37
X155.07Y-80.37
X157.57Y-80.37
X160.07Y-80.37
T0
M30
